<?xml version="1.0" encoding="UTF-8"?>
<svg id="_Слой_2" data-name="Слой 2" xmlns="http://www.w3.org/2000/svg" viewBox="0 0 701.44 104.1">
  <defs>
    <style>
      .cls-1 {
        fill: #f60;
      }
    </style>
  </defs>
  <g id="_Слой_1-2" data-name="Слой 1">
    <g>
      <path class="cls-1" d="M530.19,62.6c-51.08-1.52-102.16-2.55-153.74-3.09-51.1-.04-102.19-.09-153.29.35-25.06.23-49.63.95-74.69,1.18-12.78.35-25.06.22-37.35.59-10.32-.11-23.12,2.7-32.91-.84-1.96-1-3.9-2.5-3.39-4.95.04-3.93,3.02-6.85,5.95-5.34,11.3.12,24.11-3.19,34.93-4.55,12.3-1.34,24.11-3.19,36.4-4.53,24.59-2.2,49.67-4.39,74.74-6.09,34.91-2.58,69.32-4.18,104.21-5.29-34.88.12-69.28,1.23-104.18,2.34-23.59,1.23-47.68,2.45-71.27,2.69-21.62.26-44.24,2.48-65.33-.69-2.94-.52-2.41-4.45.06-5.4,21.7-7.63,46.77-8.84,69.89-12.04,23.12-3.2,47.22-4.91,70.33-6.63,46.71-3.44,93.41-5.9,140.1-7.86C416.86.98,463.54,0,510.21,0l71.72.75c22.6.24,45.7-.99,68.27,1.7,10.3,1.09,18.59,8.06,18.47,18.87-.03,2.46-.54,4.41-1.55,6.86,5.89.06,11.29.61,17.18,1.17,23.07,2.21,22.73,34.63-.38,35.86-51.13,2.9-102.67-1.08-153.75-2.6Z"/>
      <path class="cls-1" d="M455.45,82.47c-51.08-1.52-102.16-2.55-153.74-3.09-51.1-.04-102.19-.09-153.29.35-25.06.23-49.63.95-74.69,1.18-12.78.35-25.06.22-37.35.59-10.32-.11-23.12,2.7-32.91-.84-1.96-1-3.9-2.5-3.39-4.95.04-3.93,3.02-6.85,5.95-5.34,11.3.12,24.11-3.19,34.93-4.55,12.3-1.34,24.11-3.19,36.4-4.53,24.59-2.2,49.67-4.39,74.74-6.09,34.91-2.58,69.32-4.18,104.21-5.29-34.88.12-69.28,1.23-104.18,2.34-23.59,1.23-47.68,2.45-71.27,2.69-21.62.26-44.24,2.48-65.33-.69-2.94-.52-2.41-4.45.06-5.4,21.7-7.63,46.77-8.84,69.89-12.04,23.12-3.2,47.22-4.91,70.33-6.63,46.71-3.44,93.41-5.9,140.1-7.86,46.2-1.48,92.88-2.46,139.56-2.46l71.72.75c22.6.24,45.7-.99,68.27,1.7,10.3,1.09,18.59,8.06,18.47,18.87-.03,2.46-.54,4.41-1.55,6.86,5.89.06,11.29.61,17.18,1.17,23.07,2.21,22.73,34.63-.38,35.86-51.13,2.9-102.67-1.08-153.75-2.6Z"/>
      <path class="cls-1" d="M529.2,100.47c-51.08-1.52-102.16-2.55-153.74-3.09-51.1-.04-102.19-.09-153.29.35-25.06.23-49.63.95-74.69,1.18-12.78.35-25.06.22-37.35.59-10.32-.11-23.12,2.7-32.91-.84-1.96-1-3.9-2.5-3.39-4.95.04-3.93,3.02-6.85,5.95-5.34,11.3.12,24.11-3.19,34.93-4.55,12.3-1.34,24.11-3.19,36.4-4.53,24.59-2.2,49.67-4.39,74.74-6.09,34.91-2.58,69.32-4.18,104.21-5.29-34.88.12-69.28,1.23-104.18,2.34-23.59,1.23-47.68,2.45-71.27,2.69-21.62.26-44.24,2.48-65.33-.69-2.94-.52-2.41-4.45.06-5.4,21.7-7.63,46.77-8.84,69.89-12.04,23.12-3.2,47.22-4.91,70.33-6.63,46.71-3.44,93.41-5.9,140.1-7.86,46.2-1.48,92.88-2.46,139.56-2.46l71.72.75c22.6.24,45.7-.99,68.27,1.7,10.3,1.09,18.59,8.06,18.47,18.87-.03,2.46-.54,4.41-1.55,6.86,5.89.06,11.29.61,17.18,1.17,23.07,2.21,22.73,34.63-.38,35.86-51.13,2.9-102.67-1.08-153.75-2.6Z"/>
    </g>
  </g>
</svg>