<?xml version="1.0" encoding="UTF-8"?>
<svg id="_Слой_2" data-name="Слой 2" xmlns="http://www.w3.org/2000/svg" viewBox="0 0 94.02 74.62">
  <defs>
    <style>
      .cls-1 {
        fill: #f60;
      }
    </style>
  </defs>
  <g id="_Слой_1-2" data-name="Слой 1">
    <g>
      <path class="cls-1" d="M62.99,57.25c-.23-.81-1.9.23-2.44.21-.45-.02-.88-.42-1.35-.51-2.04-.35-9.86,2.6-12.14,3.51-8.72,3.47-16.46,8.89-25.26,12.23-13.65,5.18-23.18-.12-21.63-15.43,1.14-11.3,10.62-31.68,22.72-34.58,5.04-1.21,9.61,1.55,9.62,6.97.01,7.29-5.84,18.71-1.83,25.19,3.89,6.29,11.93-1.19,14.89-4.73,5.3-6.35,12.81-18.55,14.09-26.7.41-2.62.24-4.36-2.72-2.46s-5.69,5.93-6.42,9.29c-.32,1.49-.85,4.37,1.38,4.56.36.03.58-.11.89-.18.14-.03.41-.1.3.17-.09.22-1.73,1.66-2.05,1.91-6.02,4.77-15.61,6.7-14.98-4.15.64-11.01,12.36-27.82,22.81-31.72,15.48-5.78,6.3,19.84,3.83,26.01-.64,1.6-1.35,3.16-2.08,4.72.67-.47,1.15-1.2,1.78-1.71,2.24-1.82,5.85-2.48,5.81,1.45,1.53-2.08,2.98-4.22,4.62-6.21,2.57-3.11,7.94-8.81,11.85-9.8,4.3-1.09,3.89,3.28,3.18,6.08-.85,3.31-2.65,6.24-4.13,9.27l2.58.28,3.16-5.56,4.56,5.08c-3.48,4.6-6.11,9.83-7.82,15.35l-4.19,1.48.28-3.48.97-4.84c-2.82,3.86-5.99,7.44-9.57,10.63l6.73.07-2.39,6.19c-.22.14-2.95-.34-3.48-.38-1.75-.12-5.37-.3-6.99,0-.28.05-.44.31-.69.36-.85.19-1.15-.26-1.68.83-.18.36-.19.9-.41,1.18-.26.33-.6.2-.87.45-.68.63-.77,3.71-.64,4.62.1.72.57.43.84.87.31.52.11,1.53-.46,1.78-.26.12-.66-.11-.66-.27v-8.05ZM76.06,36.19c.57-1.11,1.22-2.2,1.74-3.34.39-.87,1.97-4.52,1.5-5.24-.14-.19-.29-.13-.47-.07-1.87.62-5.79,6.35-6.89,8.17-.33.55-2.63,4.71-2.35,4.98.19.06.9-.17.79.19-.09.29-.44.78-.59,1.13-.29.71-1.62,3.71-.73,4.16.83.41,3.22-1.49,3.89-2.05,2.52-2.11,4.6-4.95,6.54-7.59.03-.27,0-.17-.19-.2-1.02-.13-2.2-.11-3.24-.13ZM63.65,34.08c-.08-.09-.66.26-.78.34-1.96,1.24-6.09,7.88-6.06,10.16,0,.16.07.3.12.44.44.31,2.37-1.41,2.76-1.77.5-.45,2.17-2.13,2.37-2.64.09-.23-.06-.18-.19-.2-.33-.04-.73.04-1.06,0-.18-.02-.23.07-.19-.19.41-.77,3.48-5.66,3.03-6.14ZM58.31,49.73c-2.61,2.43-7.44,5.1-6.79-1.05.09-.85.55-1.61.58-2.46-3.26,4.66-6.89,9.03-10.89,13.07,2.37-.84,4.56-2.1,6.87-3.1,3.72-1.61,7.57-2.93,11.33-4.44.17-1.33.34-2.68.81-3.94-.31-.09-.23.09-.3.17-.55.56-1.03,1.22-1.6,1.75Z"/>
      <path class="cls-1" d="M85.64,56.47c-1.13,1.39-3.84,3.02-4.66.48-.72-2.24.49-5.46,1.95-7.22,2.34-2.84,5.26-2.43,4.88,1.71-.15,1.64-1.13,3.77-2.17,5.03Z"/>
    </g>
  </g>
</svg>