<?xml version="1.0" encoding="UTF-8"?>
<svg id="_Слой_2" data-name="Слой 2" xmlns="http://www.w3.org/2000/svg" viewBox="0 0 1003.4 546.66">
  <defs>
    <style>
      .cls-1 {
        fill: #f60;
      }
    </style>
  </defs>
  <g id="_Слой_1-2" data-name="Слой 1">
    <g>
      <g>
        <path class="cls-1" d="M484.83,128.97l-11.48,3.76c-15.24,5-30.48,10-45.99,14.85-7.3,2.41-15.27-2.72-17.2-9.92-1.93-7.2,2.39-15.63,9.92-17.2,14.79-3.29,29.64-6.37,44.48-9.44l11.82-2.49c1.69-.46,3.72-.54,5.62-1.06l-.23-.85c-1.12-3.33-2.03-6.72-3.21-10.27-5.84-17.51-11.68-35.03-17.73-52.48-.26,15.97.99,32.44-2.58,47.94-1.92,8.92-13.86,7.58-16.6-.08-4.09-11.85-8.39-23.64-12.48-35.49l.14,8.14c1,14.72,3.12,29.37,4.06,43.88.26,6.06-8.69,8.24-11.44,3.07-7.2-13.29-14.25-26.84-20.87-40.51.7,3.45,1.24,7.16,1.73,10.67,2.58,13.84,7.14,28.29,6.16,42.41.02.9-1.04,1.19-1.69.46-7.61-12.27-9.8-28.03-12.71-42.24-3.12-14.15-5.66-28.69-7.72-43.13-.47-2.6.66-5.17,3.41-5.91,2.12-.57,4.64.34,5.57,2.14,6.52,14.15,13.47,28.18,20.79,41.89-.23-4.25-.68-8.45-.91-12.7-1.11-15.15-1.32-30.31.33-45.29.92-8.42,11.27-9.61,14.5-1.85l12.97,33.09c-.15-14.95.18-29.8,5.68-44,3.42-8.41,14.06-8.55,17.3.13,11.07,31.1,22.21,62.41,32.7,93.89,2.58,7.94,4.8,16.2-2.05,22.81-3.24,3.14-7.91,4.39-12.3,5.8Z"/>
        <path class="cls-1" d="M278.71,269.16c-10.43.75-20.86.75-31.29.75-10.43-.25-21.11-.25-31.79-.5-2.48,0-5.22-.25-7.7-.25-7.45.75-14.65,1.74-21.85,2.48-5.22.5-10.93-.75-13.16-5.96-1.49-3.48-.5-6.46,1.99-8.69.5-2.24,1.74-4.22,3.48-5.96-1.24-1.99-1.74-4.47-1.74-6.71.75-16.89-.75-34.02-2.23-50.66-4.22-4.22-7.45-9.44-8.44-15.15-.75-4.72-.75-10.93,2.98-14.65.5-.5.99-.99,1.74-1.49-1.24-8.44-2.48-16.89-3.48-26.57h.25c0-3.97,1.49-7.7,4.22-10.18-.75-.5-1.49-.99-2.24-1.74-1.24-.75-.5-2.48.75-2.23,2.24.5,4.47.75,6.46.99.25,0,.5,0,.75-.25,3.97-.99,8.2-.25,11.42,1.99,2.73,1.74,21.11,1.49,26.57,1.74,16.39.25,33.28-1.74,48.68-8.2,7.95-3.23,18.38-7.95,25.33,0,2.98,2.98,4.22,7.45,2.98,11.67-.75,3.23-4.47,8.69-7.7,9.93-.25.5-.75.74-.99,1.24.25.99,0,2.23-1.49,2.73-18.38,5.22-36.76,10.18-55.63,10.93-9.19.5-18.38-.25-27.07-1.99-.5-.25-.75-.25-1.24-.25.75,4.22,1.24,8.44,1.99,12.67,2.23.25,4.72.5,7.2.99,4.97,1.24,9.93,2.98,14.9,4.22,0-2.48,4.47-.99,5.22-.75,10.43,2.98,20.61,8.94,29.55,14.65,5.46,3.23,10.43,7.2,15.15,11.42,4.22,3.73,8.2,7.95,11.92,12.17,4.97,5.96,11.67,14.65,15.89,24.09,4.47,9.44,6.21,19.37,1.24,27.57-4.97,7.95-13.66,9.44-22.6,9.93ZM231.27,206.32c-2.24-.99-26.33-10.43-26.33-9.93-.25.5-.25.99-.25,1.49-.5.74-.99,1.74-.99,2.98,0,12.91.75,25.83,1.74,38.74v4.47c1.24-.25,2.48-.25,3.48-.5,12.67-1.99,25.58-1.99,38.49-1.99,2.24,0,24.84-.75,25.08,1.49,0-.5,0-.99-.25-1.49-2.48-8.44-8.94-14.65-15.65-19.62-7.95-5.96-16.39-11.18-25.33-15.65Z"/>
        <path class="cls-1" d="M355.69,193.66c-2.23-.5-4.47-.75-6.71-1.24.5,2.98,1.24,5.96,1.74,8.69,2.23,12.17,4.72,24.59,5.96,36.76.5,5.96.5,12.17-1.24,17.88-1.24,4.22-3.97,8.2-7.45,11.42-2.73,2.24-7.95,4.97-10.93,1.24-2.73-3.48-2.73-8.2-3.23-12.67-.5-2.98-.99-6.21-1.24-9.44-1.24-3.97-2.23-8.2-2.98-12.67.25,2.73.5,5.22.99,7.7.5,4.47.99,8.69,1.74,12.91.25,3.23,1.24,6.95.25,9.93q0,.25-.25,0c-1.99-2.98-1.99-7.45-2.48-10.93l-2.23-12.91c-1.24-8.44-2.73-16.89-3.97-25.58-1.74-10.18-3.23-20.61-4.72-30.8-7.7-2.98-15.4-6.46-22.85-10.43-.25-.25,0-.75.5-.5,7.2,3.48,14.65,6.46,22.1,9.19-.25-1.49-.75-2.73-.99-4.22-5.71-2.24-11.18-4.72-16.64-7.2-5.46-2.48-6.71-10.18-3.97-14.9,2.23-3.73,7.95-6.71,12.42-4.97l1.49.75c-2.98-10.93-6.21-21.85-9.93-32.53-1.49-4.22,1.49-8.2,5.22-9.44-.25-2.24.99-3.97,2.48-5.22,8.2-5.71,18.88-2.48,26.82,1.49,8.2,4.22,15.89,9.19,23.59,14.16,15.65,10.43,30.3,22.1,44.46,34.77,1.99,1.74,2.73,3.73,2.48,5.71,1.49,2.48,2.48,4.97,2.98,7.45.99,6.95-.99,11.92-4.72,15.4-8.94,16.14-33.28,12.67-48.68,10.18ZM352.96,144.48c-5.46-2.73-10.93-5.46-16.64-7.95,2.48,9.44,4.97,18.88,6.95,28.56,5.22,1.74,10.43,3.23,15.89,4.47,8.2,1.74,16.64,2.73,25.08,1.99,1.74,0,3.48-.25,4.97-.5l1.99-.5c-.25-.5-.5-.99-.99-1.49-3.48-5.22-9.93-8.69-15.65-12.17-7.2-4.22-14.4-8.44-21.61-12.42ZM346.5,258.73l.5.75c.99-.5,1.74-.99,2.48-1.74,3.48-7.7,2.48-16.14.75-24.34l-1.49-7.7c-.25.25.25,3.23,0,3.23l.5,4.97c.75,8.2,1.24,17.38-2.73,24.83ZM347.99,187.7c.25.75.25,1.49.5,1.99.99.25,1.74.5,2.73.5,9.69,1.49,19.87,2.98,29.55,1.99l9.44-1.49c0-.25-5.22.25-5.22,0-8.44.99-17.14.5-23.35-.5-4.47-.5-8.94-1.49-13.66-2.48Z"/>
        <path class="cls-1" d="M556.85,235.38c-18.38,3.48-36.76,8.2-54.39,14.4-8.44,2.98-16.89,5.96-25.08,9.44h-.25c-.5.25-1.24.5-1.74.75-2.73,1.24-5.46,2.24-8.2,3.48l-.25.25c-2.98,1.99-17.14,6.21-16.89,5.96,0,0-1.49.25-2.48.25-3.97.75-8.44.5-10.43-3.72-.5-1.24-.5-2.24-.25-3.48-6.21-2.48-10.43-9.93-8.2-16.39-1.49-8.44-1.99-17.38-2.73-26.08l-2.98-29.8-2.98-28.31c-2.98-3.23-4.47-7.95-3.97-12.17.5-4.97,2.73-8.69,6.21-11.67.25-.5.75-1.24.99-1.99,5.22-2.23,10.68-4.22,15.89-5.96,16.39-5.71,33.28-9.44,50.17-12.91,13.16-2.98,26.08-6.46,38.99-9.93,1.74.25,3.48.5,4.97.99l3.97,1.49c1.24.99,2.73,2.24,3.97,3.23,1.74,5.22,2.48,10.43,1.49,15.4l-12.42,3.73c-5.46,1.74-11.18,3.48-16.89,4.97-.5.25-.99.5-1.49.5-12.67,3.48-37.25,10.93-39.98,12.17-7.95,2.73-15.89,5.71-23.59,8.94l-.5.5c.25,2.48,1.74,11.42,1.74,12.67,13.91-5.96,27.57-11.92,41.72-17.14,7.95-1.99,16.14-4.22,24.09-6.46l3.23-.75c2.98-.5,5.71-.75,8.69-.99,6.21-.25,12.17,0,15.65,5.96.5.75.75,1.49.99,1.99.5.99.99,1.99,1.24,2.98q.25.25.5.25c2.23,1.24,3.73,3.73,4.22,6.21.99,4.72-1.99,10.18-6.46,12.42-5.22,2.48-10.68,2.23-16.39,3.48-5.96.99-12.17,2.24-18.13,3.73-11.92,3.23-23.59,6.95-35.27,11.92-7.2,2.98-13.91,6.46-20.86,9.93l1.49,16.14v.99l.75-.5c5.46-2.48,10.93-4.72,16.39-6.95l21.11-8.2c3.73-1.49,7.45-2.98,11.18-4.22,5.96-2.24,11.92-4.47,17.88-6.46l9.69-2.98c2.73-.75,5.22-1.99,7.95-2.73,19.12-3.97,23.84,17.88,24.83,32.04.25,4.47-1.74,7.95-4.72,10.18-.25,1.24-.99,2.23-2.48,2.48ZM472.66,112.94l5.71-1.49c10.18-1.99,20.36-3.97,31.04-4.72,2.23-.25,4.47-.25,6.71-.25-9.69,2.48-19.62,4.97-29.31,7.2-16.89,3.73-33.78,7.45-50.17,13.16-5.71,1.74-11.18,3.97-16.64,6.46-.5-.25-.5-.99,0-1.49,16.39-8.69,34.77-14.16,52.65-18.87ZM454.53,265.93c.25,0,.5,0,.74-.25,1.99-.99,3.97-1.99,5.71-2.98,3.97-1.99,7.7-3.97,11.42-5.96v-.5c-4.47,1.74-8.94,3.48-13.66,4.97-4.72,1.74-9.44,3.73-14.4,4.97,3.73.5,9.44,0,10.18-.25ZM476.14,187.45c-4.97,1.49-9.69,2.98-14.4,4.22-.5,2.73-1.99,5.22-3.97,6.95,12.17-6.21,25.08-10.93,37.5-15.89,1.49-.74,2.73-1.24,4.22-1.74l-.25-.75c-7.7,2.48-15.4,4.72-23.1,7.2Z"/>
        <path class="cls-1" d="M568.02,257.73l.75-6.21c-.25-43.96,5.22-88.16,14.16-131.13.75-3.48,6.46-1.99,5.46,1.49-10.43,46.69-15.65,93.88-18.87,141.31,0,.5-.25-.25-.5-.75-.5-.75-.99-2.48-.99-4.72ZM678.04,204.83c-.75,20.86-1.74,41.72-2.73,62.58-1.74,2.24-3.97,3.97-6.95,4.72-5.71,1.74-11.18-.25-14.4-5.21-.25,0-.75,0-.99-.25-3.73-.75-5.46-3.97-6.21-7.45-.99-4.97,0-10.68,0-15.89.25-5.96.75-66.31,1.24-80.47l-3.97,5.46c-7.45,13.41-38,68.3-38,68.3l-5.22,8.94c-.5,2.73-1.24,5.46-1.74,8.44-1.24,6.46-2.48,14.16-9.19,17.14-1.49.75-3.73.99-5.22,0-4.47,0-8.69-2.98-11.18-6.71,1.99-30.55,4.72-61.34,9.44-91.64,2.48-14.9,4.97-30.05,8.94-44.46l3.73-14.16c.5-.5.99-.99,1.49-1.24,4.47-2.98,11.92-3.48,14.65,1.99q.25.25.25.5c1.74.99,3.23,2.73,4.22,4.47,2.73,4.97.5,9.69-.74,14.4-2.24,8.94-3.97,17.88-5.46,26.82-1.74,8.44-3.23,17.14-4.72,25.58-.75,4.22-1.24,8.44-1.74,12.67.5-2.98,3.48-7.7,4.72-10.93,1.24-4.22,3.97-7.7,6.21-11.42,2.98-5.96,6.46-11.67,9.69-17.63,6.46-12.17,13.66-24.09,21.85-35.27,4.72-6.21,19.12-20.86,26.82-10.68,1.24,1.74,1.74,3.48,1.99,5.71h.75c1.49.5,2.73,1.24,3.97,2.24.5,10.68.25,21.61,0,32.53l-1.49,50.91ZM622.16,95.81c1.24-.5,2.48-.5,3.48.5.75.5,1.24.99,1.49,1.99l.5.5c.25.25.75.5.99.75.5.25.99.5,1.49.5,2.24,0,3.48,0,4.97-.99,4.22-2.98,7.95-7.7,11.18-11.42,6.95-8.2,20.36,2.24,14.65,11.18-3.23,5.22-6.71,10.18-11.92,13.66-4.47,2.48-9.44,4.22-14.65,3.48-8.44-.99-17.38-8.2-14.9-17.38.25-1.24,1.24-2.48,2.73-2.73ZM651.97,229.67c-.25,3.48-.5,7.2-.74,10.68-.25,4.97-.75,9.69-.99,14.65,0,2.23.75,5.96,2.24,8.44-1.24-4.97,0-9.93.99-14.9v-.99c-.25-5.71-.25-11.42-.5-16.89v-.75l-.99-.25Z"/>
        <path class="cls-1" d="M820.34,259.72c7.95-3.23.25-19.62-1.49-24.59-7.45-20.12-18.38-37.75-32.78-53.64,9.44,11.67,34.02,55.38,35.27,69.79.75,6.71-3.97,13.16-11.67,13.16-4.72,0-9.19-2.73-11.18-6.95-1.24-2.24-1.74-4.47-1.74-6.95-9.19-18.63-22.35-35.27-36.01-50.42-5.96-6.71-11.92-13.41-19.12-18.63l-3.97,1.49c-2.23.99-4.22,1.74-5.96,2.48,1.24,13.66,2.73,27.57,4.47,41.48.74,5.46,1.99,10.93,2.98,16.39,1.24,4.72,3.48,10.18,4.47,15.89.5,1.99.25,4.47-1.49,5.96-5.96,4.97-13.41,6.46-20.36,3.97-5.71.75-11.67-2.73-14.16-8.2-2.98-6.95-2.98-14.4-3.73-21.85-1.99-16.89-3.97-33.78-5.22-50.66-1.24-16.89-1.99-33.78-2.73-50.91,0-4.47-.25-8.94-.25-13.41-.25-4.47.25-10.43,5.46-11.67.25-.99.75-1.74,1.24-2.73,6.71-12.17,27.07-3.97,22.35,9.44-1.49,4.97-1.24,10.93-1.49,16.64l-.75,22.35c.75-.75,1.24-1.24,1.99-1.49.99-10.68,2.24-21.11,3.97-31.54,0-.25.25,0,.25,0v1.74c.25,9.19.5,18.13.99,27.32,20.61-8.94,44.95-20.86,64.32-32.04,3.97-2.24,9.44-6.71,14.4-5.22,3.97.99,5.96,4.72,5.96,8.69l.75-.75c2.48-1.99,5.96.75,4.47,3.73-8.69,16.39-25.08,26.33-40.98,35.27l-6.46,3.48c1.24.99,2.24,1.99,3.48,2.98-.25-1.74,2.23-3.48,3.73-1.99,15.15,14.16,27.32,31.04,35.51,49.92,4.22,9.19,7.45,18.63,9.93,28.31.99,4.97,1.74,12.42-4.22,14.16-.5.25-.75-.75-.25-.99Z"/>
      </g>
      <g>
        <path class="cls-1" d="M994.62,502.97c.58,3.19.38,6.92.43,10.38.03,2.13.07,4.26.37,6.65.03,1.87-2.63,2.17-3.19.32-1.13-4.24.62-11.73-.54-17.31-1.07.02-2.4-.23-3.73-.21-.36,10.93.07,21.85-.02,32.77.02,1.33-1.58,1.36-1.6.02l-.13-8.26c-.11-6.92.05-13.59-.06-20.51l-.07-4.26c-2.4-.23-4.8-.19-7.2-.42-.21,3.47-.16,6.93-.37,10.66.02,1.33.05,2.93-.2,4.27.02,1.6-2.11,1.63-2.4.04-.35-5.06-.69-10.11-.77-15.17-41.34-2.82-82.67-4.84-123.95-4.19-4-.2-7.99.12-11.99.19-.23,2.14-.46,4.54-1.23,6.41-.51,1.61-2.92.84-3.21-.75-.03-1.86-.06-3.73-.35-5.59-17.58.27-35.16.82-52.73,1.62-13.58.74-27.68,2.03-41.52,2.51-.26.54-.52,1.07-.5,1.87.29,1.59.32,3.19.61,5.05.31,2.93-4.22,3-4.53.07l-.9-6.38c-.53,0-.8.01-1.34-.25l-.26.27c-.26.54-.79.81-1.32,1.09-1.06.55-2.13.3-2.68-.76.89,5.58.7,10.91,1.06,16.5.1,6.66.74,13.31,1.38,19.96.03,1.86-2.63,1.91-2.66.04-.91-7.18-1.56-14.63-2.47-21.81-.35-5.32-.96-10.38-.51-15.45l-1.06.02c-.24,1.87-.21,3.73-.45,5.6-.23,2.4-3.16,2.18-3.2.05h-.27c-.03-1.86-.33-3.99-.62-5.85-.8.01-1.6.03-2.67-.22.09,5.86.72,11.71.27,17.31-.43,6.67.21,13.32.04,19.98.29,1.33-1.84,1.36-2.13.03-.38-7.19-.23-14.65-1.14-21.83-.61-5.05-.16-10.39-.51-15.71l-1.33.02c-2.94-.49-4.34-4.73-1.42-5.84,21.99-8.07,45.94-9.78,69.08-12.27,5.58-.62,11.17-.97,17.03-1.6-9.58.68-19.16,1.37-28.74,2.31-22.35,1.95-44.68,5.23-67.02,7.44,1.27,12.77,2.26,25.54,3,38.32,0,.27.27.26.27.53.34,4.79.68,9.58.76,14.38.3,2.13-3.16,2.18-3.2.05-.61-4.79-.68-9.58-1.02-14.37,0-.27-.01-.8.25-.8-.73-12.78-1.46-25.29-1.66-38.07-1.06.28-2.13.3-3.19.32-1.59.56-3.45,1.12-5.31.88h.27c-3.47-.22-7.23-2.56-6.76-6.56.41-8,8.32-13.19,14.93-16.22,6.88-3.3,14.03-5.55,21.47-7,16.47-2.92,33.25-3.45,49.49-4.24,36.47-1.9,72.96-2.74,109.45-3.04,15.45-.24,30.9-.48,46.35-.46l12.79-.2c4.26-.07,8.78-.94,12.8.87,5.36,2.05,9.96,6.24,10.05,12.36l.02,1.6c10.13.64,20,1.29,30.12,1.13,5.86.17,7.3,6.81,4.96,10.58,8.6,4.66,7.23,19.34-3.14,21.1Z"/>
        <path class="cls-1" d="M60.01,382.35c-2.23-.5-4.47-.75-6.71-1.24.5,2.98,1.24,5.96,1.74,8.69,2.23,12.17,4.72,24.59,5.96,36.76.5,5.96.5,12.17-1.24,17.88-1.24,4.22-3.97,8.2-7.45,11.42-2.73,2.24-7.95,4.97-10.93,1.24-2.73-3.48-2.73-8.2-3.23-12.67-.5-2.98-.99-6.21-1.24-9.44-1.24-3.97-2.23-8.2-2.98-12.67.25,2.73.5,5.22.99,7.7.5,4.47.99,8.69,1.74,12.91.25,3.23,1.24,6.95.25,9.93q0,.25-.25,0c-1.99-2.98-1.99-7.45-2.48-10.93l-2.23-12.91c-1.24-8.44-2.73-16.89-3.97-25.58-1.74-10.18-3.23-20.61-4.72-30.8-7.7-2.98-15.4-6.46-22.85-10.43-.25-.25,0-.75.5-.5,7.2,3.48,14.65,6.46,22.1,9.19-.25-1.49-.75-2.73-.99-4.22-5.71-2.24-11.18-4.72-16.64-7.2-5.46-2.48-6.71-10.18-3.97-14.9,2.23-3.73,7.95-6.71,12.42-4.97l1.49.75c-2.98-10.93-6.21-21.85-9.93-32.53-1.49-4.22,1.49-8.2,5.22-9.44-.25-2.24.99-3.97,2.48-5.22,8.2-5.71,18.88-2.48,26.82,1.49,8.2,4.22,15.89,9.19,23.59,14.16,15.65,10.43,30.3,22.1,44.46,34.77,1.99,1.74,2.73,3.73,2.48,5.71,1.49,2.48,2.48,4.97,2.98,7.45.99,6.95-.99,11.92-4.72,15.4-8.94,16.14-33.28,12.67-48.68,10.18ZM57.28,333.18c-5.46-2.73-10.93-5.46-16.64-7.95,2.48,9.44,4.97,18.88,6.95,28.56,5.22,1.74,10.43,3.23,15.89,4.47,8.2,1.74,16.64,2.73,25.08,1.99,1.74,0,3.48-.25,4.97-.5l1.99-.5c-.25-.5-.5-.99-.99-1.49-3.48-5.22-9.93-8.69-15.65-12.17-7.2-4.22-14.4-8.44-21.61-12.42ZM50.82,447.42l.5.75c.99-.5,1.74-.99,2.48-1.74,3.48-7.7,2.48-16.14.75-24.34l-1.49-7.7c-.25.25.25,3.23,0,3.23l.5,4.97c.75,8.2,1.24,17.38-2.73,24.83ZM52.31,376.39c.25.75.25,1.49.5,1.99.99.25,1.74.5,2.73.5,9.69,1.49,19.87,2.98,29.55,1.99l9.44-1.49c0-.25-5.22.25-5.22,0-8.44.99-17.14.5-23.35-.5-4.47-.5-8.94-1.49-13.66-2.48Z"/>
        <path class="cls-1" d="M208.27,398.99c-1.24,13.66-3.48,28.81-11.67,40.48-2.73,3.73-5.71,7.2-9.19,10.18-4.72,4.72-10.43,7.95-17.38,8.94-2.73.25-5.46.25-8.2,0-8.2,1.49-17.38-1.49-24.09-6.95-11.67-9.93-16.64-24.84-19.12-39.49-4.97-31.79-.5-64.57,16.14-92.39.25,0,.25-.25.5-.5,2.48-6.46,5.71-12.42,9.93-17.88.25-.5.75-.25.5.25-1.49,2.48-2.98,4.97-3.97,7.45-1.24,2.73-2.24,5.46-3.23,8.2.75-.25,1.49,0,1.99,0,4.22-9.19,10.18-16.89,18.13-18.63,3.23-1.24,6.46-2.23,9.69-1.99,3.48-.75,7.7-.75,10.68.99,3.23,1.99,5.71,6.21,7.45,9.44,1.99-.75,4.47-.25,5.71,1.99,3.48,6.71,6.95,13.66,9.44,20.86,2.24,7.45,3.73,15.15,4.97,22.6,2.48,15.4,3.48,30.8,1.74,46.44ZM181.2,388.56c-.99-12.42-1.74-25.08-3.72-37.25-.75-3.73-1.24-7.45-1.99-10.93-1.49-4.47-2.98-8.94-4.72-13.16-.75-1.74-1.49-3.73-2.48-5.46-.25-.25-.75-.5-.99-.5h-1.24c-1.49,2.73-2.48,5.96-3.23,8.44-2.73,8.94-4.97,18.13-6.21,27.57-2.24,18.38-1.99,37.5.99,55.88.5,2.73.25,5.22-.99,7.45-6.95-32.29-6.46-68.79,7.7-98.6-1.49.99-2.48,2.98-3.48,4.72-4.72,9.19-7.95,19.37-9.93,29.55-.25.5-.25.75-.5.99-.99,5.71-1.49,11.42-1.99,17.14-.75,16.89,1.24,33.78,4.97,49.92-.75.5-1.74.99-2.73,1.24-2.98.75-6.21,0-8.69-1.49,3.97,8.2,12.67,18.38,23.34,15.15,2.98-.99,5.22-3.23,6.71-5.96,1.49-2.73,2.73-5.46,3.48-8.44,4.22-11.67,5.71-24.09,5.71-36.26Z"/>
        <path class="cls-1" d="M351.82,443.2c0,.99,0,1.99-.25,2.98-.99,8.44.99,18.88-2.73,26.57-2.73,5.96-11.18,6.46-15.89,3.23-4.47-2.73-6.71-6.71-8.44-11.67-2.23-5.22-2.98-11.67-3.72-17.63l-2.24-.75c-9.69-2.48-19.62-2.23-29.31-2.73-9.44-.75-18.88-1.24-28.31-1.49-3.97-.25-7.95-.25-11.92-.5l1.49,6.95c1.24,7.7,2.48,18.38-2.23,25.33-1.74,2.48-4.97,4.22-8.2,4.47-.99.5-2.48.75-3.73.5-5.71,1.49-9.69-2.23-12.42-6.95-4.97-8.44-8.94-17.38-12.17-26.57-2.48-6.46-4.72-14.4-.5-20.86,1.74-2.73,4.22-4.97,6.95-6.21,2.73-2.23,6.21-3.48,9.69-3.73,3.73-1.74,8.44-2.24,12.67-2.24h.25c-.5-5.22-.5-10.18.5-15.4.99-6.71,2.48-13.41,4.22-20.12,1.74-6.21,3.48-12.42,5.71-18.38,3.73-10.68,8.69-20.86,15.4-30.05,5.46-7.45,12.91-16.64,22.85-18.13,7.2-.99,15.15,1.24,18.63,8.44.75,1.99,1.24,3.97,1.49,5.96,1.74,0,3.23.5,4.72,1.49,8.69,5.96,9.44,15.15,10.18,24.84.75,9.69,1.74,19.12,3.23,28.81,1.74,10.43,3.48,20.61,5.46,31.04.75,3.48,1.74,6.95,2.48,10.43,2.23.75,4.47,1.49,6.71,2.73,1.24.5,1.99,1.24,2.98,1.99,5.71,5.22,7.2,10.43,6.46,17.63ZM276.57,382.6c1.49-7.95,3.48-16.14,5.96-24.09-8.94,16.14-12.67,52.15-13.16,54.39.99,0,2.24,0,3.23.25.5-10.18,1.99-20.36,3.97-30.55ZM306.12,416.38c-1.49-4.47-2.48-9.19-3.72-13.66-2.24-8.69-3.97-17.38-5.96-26.08l-5.71-26.08c-.25-1.49-.75-2.98-.99-4.47-1.24,3.97-2.48,7.95-3.48,12.17-2.24,8.44-3.97,17.14-4.97,25.83-1.49,9.93-1.99,19.87-2.24,29.8l5.96.75c4.72.5,9.44.99,14.16,1.74,2.48,0,4.72.25,6.95.5v-.5ZM322.51,418.86l-6.21-28.31c.5,4.72,1.99,25.83,1.99,27.57l1.49.25c.74.25,1.74.25,2.73.5Z"/>
        <path class="cls-1" d="M372.18,353.54c-3.23,20.86-5.96,41.72-7.95,62.83-1.24,11.92-2.23,23.84-2.98,35.51,0,.5-.25-.25-.5-.75-.25-.75-.75-2.48-.99-4.72l.75-6.21c0-43.96,5.46-88.16,14.16-131.13.5-2.23,4.22-1.74,4.97-.25,1.49,3.48-.99,10.18-1.74,13.66-1.99,10.18-3.97,20.61-5.71,31.04ZM471.27,342.62c-.5,16.89-.75,34.02-1.49,50.91-.75,20.86-1.49,41.72-2.73,62.58-1.74,2.24-3.97,3.97-6.95,4.72-5.46,1.74-11.18-.25-14.16-5.21-.5,0-.75,0-1.24-.25-3.73-.75-5.22-3.97-5.96-7.45-1.24-4.97-.25-10.68,0-15.89l.75-25.83c.5-18.38,0-36.51.25-54.64-1.24,1.74-2.48,3.73-3.97,5.46-3.23,4.72-28.06,50.42-38,68.3-1.74,2.98-3.48,5.96-4.97,8.94-.75,2.73-1.24,5.46-1.74,8.44-1.24,6.46-2.73,14.16-9.44,17.14-1.49.75-3.48.99-4.97,0-4.72,0-8.69-2.98-11.42-6.71,1.99-30.55,4.72-61.34,9.69-91.64,2.24-14.9,4.72-30.05,8.69-44.46,1.24-4.72,2.73-9.44,3.72-14.16.5-.5,1.24-.99,1.74-1.24,4.22-2.98,11.67-3.48,14.65,1.99,0,.25.25.25.25.5,1.74.99,3.23,2.73,4.22,4.47,2.73,4.97.5,9.69-.75,14.4-2.48,8.94-3.97,17.88-5.71,26.82l-4.47,25.58c-.75,4.22-1.24,8.44-1.74,12.67.5-3.48,17.14-34.02,20.36-39.98,6.71-12.17,13.66-24.09,22.1-35.27,4.72-6.21,18.88-20.86,26.57-10.68,1.49,1.74,1.99,3.73,1.99,5.71h.75c1.49.5,2.98,1.24,3.97,2.24.75,10.68.25,21.61,0,32.53ZM445.19,436.24c0-5.71-.25-11.42-.25-16.89v-.75c-.5,0-.75-.25-.99-.25l-.75,10.68c-.5,4.97-.75,9.69-.99,14.65-.25,2.23.5,5.96,1.99,8.44-1.24-4.97.25-9.93.99-14.9v-.99Z"/>
        <path class="cls-1" d="M618.53,315.3c-.25,4.47-1.24,8.94-5.21,11.67-.99.74-2.48,1.24-3.73,1.49-.5.5-.99.99-1.74.99-12.67,2.48-25.08,4.72-37.75,6.46,0,10.93-.25,21.85-.25,32.78,0,15.15.25,30.3.25,45.45.25,8.69.75,17.38.99,26.08-.5,5.96-1.49,11.92-5.96,15.4v-.5c.25-3.48.25-6.95.5-10.43v-9.44c-.99,4.47-1.24,11.42-2.98,16.39-1.74,5.46-7.95,8.44-13.16,6.95-10.43-3.23-12.67-14.65-13.16-24.34-.75-12.67-.5-25.58,0-38.25.75-12.67,1.49-25.58,1.99-38.49l.5-10.93v-7.95h-9.69c-6.71,0-13.41-.25-19.87-.75-5.22-.75-10.68-1.49-15.15-4.22-3.23-2.23-6.46-5.71-7.95-9.69-4.97-2.73-7.95-8.69-6.46-14.65,1.49-4.97,6.46-9.69,11.92-9.19,13.66,1.24,27.07,2.24,40.73,2.24,0-.25.25-.5.25-.75-13.41-.75-26.82-2.24-40.23-4.47-.75,0-.5-1.49.25-1.24,34.77,1.99,69.54,1.24,104.06-1.74,2.73-.5,5.21-.75,7.7-.99,1.24,0,2.73-.25,4.22,0,3.72-.5,7.45-.74,11.18-1.24,2.24-.25,2.98,3.97.5,4.47-.5,0-1.24,0-1.74.25.5.25.99.5,1.49.99,5.71,3.23,5.46,12.67-.5,15.15-.25.99-.5,1.74-.99,2.48ZM522.42,331.94c-9.93-.99-19.87-2.73-29.55-5.71,3.97,3.73,10.43,5.46,16.39,5.71,4.22.25,8.69.25,13.16,0Z"/>
        <path class="cls-1" d="M760.34,424.07c-18.38,3.48-36.76,8.2-54.39,14.4-8.44,2.98-16.89,5.96-25.08,9.44h-.25c-.5.25-1.24.5-1.74.75-2.73,1.24-5.46,2.24-8.2,3.48l-.25.25c-2.98,1.99-17.14,6.21-16.89,5.96,0,0-1.49.25-2.48.25-3.97.75-8.44.5-10.43-3.72-.5-1.24-.5-2.24-.25-3.48-6.21-2.48-10.43-9.93-8.2-16.39-1.49-8.44-1.99-17.38-2.73-26.08l-2.98-29.8-2.98-28.31c-2.98-3.23-4.47-7.95-3.97-12.17.5-4.97,2.73-8.69,6.21-11.67.25-.5.75-1.24.99-1.99,5.22-2.23,10.68-4.22,15.89-5.96,16.39-5.71,33.28-9.44,50.17-12.91,13.16-2.98,26.08-6.46,38.99-9.93,1.74.25,3.48.5,4.97.99l3.97,1.49c1.24.99,2.73,2.24,3.97,3.23,1.74,5.22,2.48,10.43,1.49,15.4l-12.42,3.73c-5.46,1.74-11.18,3.48-16.89,4.97-.5.25-.99.5-1.49.5-12.67,3.48-37.25,10.93-39.98,12.17-7.95,2.73-15.89,5.71-23.59,8.94l-.5.5c.25,2.48,1.74,11.42,1.74,12.67,13.91-5.96,27.57-11.92,41.72-17.14,7.95-1.99,16.14-4.22,24.09-6.46l3.23-.75c2.98-.5,5.71-.75,8.69-.99,6.21-.25,12.17,0,15.65,5.96.5.75.75,1.49.99,1.99.5.99.99,1.99,1.24,2.98q.25.25.5.25c2.24,1.24,3.73,3.73,4.22,6.21.99,4.72-1.99,10.18-6.46,12.42-5.22,2.48-10.68,2.23-16.39,3.48-5.96.99-12.17,2.24-18.13,3.73-11.92,3.23-23.59,6.95-35.27,11.92-7.2,2.98-13.91,6.46-20.86,9.93l1.49,16.14v.99l.75-.5c5.46-2.48,10.93-4.72,16.39-6.95l21.11-8.2c3.72-1.49,7.45-2.98,11.18-4.22,5.96-2.24,11.92-4.47,17.88-6.46l9.69-2.98c2.73-.75,5.22-1.99,7.95-2.73,19.12-3.97,23.84,17.88,24.84,32.04.25,4.47-1.74,7.95-4.72,10.18-.25,1.24-.99,2.23-2.48,2.48ZM676.15,301.64l5.71-1.49c10.18-1.99,20.36-3.97,31.04-4.72,2.24-.25,4.47-.25,6.71-.25-9.69,2.48-19.62,4.97-29.31,7.2-16.89,3.73-33.78,7.45-50.17,13.16-5.71,1.74-11.18,3.97-16.64,6.46-.5-.25-.5-.99,0-1.49,16.39-8.69,34.77-14.16,52.65-18.87ZM658.02,454.62c.25,0,.5,0,.75-.25,1.99-.99,3.97-1.99,5.71-2.98,3.97-1.99,7.7-3.97,11.42-5.96v-.5c-4.47,1.74-8.94,3.48-13.66,4.97-4.72,1.74-9.44,3.73-14.4,4.97,3.73.5,9.44,0,10.18-.25ZM679.62,376.14c-4.97,1.49-9.69,2.98-14.4,4.22-.5,2.73-1.99,5.22-3.97,6.95,12.17-6.21,25.08-10.93,37.5-15.89,1.49-.74,2.73-1.24,4.22-1.74l-.25-.75c-7.7,2.48-15.4,4.72-23.1,7.2Z"/>
        <path class="cls-1" d="M880.78,445.43c2.48,6.95-1.99,14.4-9.93,13.66-12.17-.75-18.63-11.92-21.61-22.35-3.48-13.41-6.46-26.82-8.94-40.23-1.99-9.19-8.44-46.44-9.19-50.17-5.46,14.9-10.18,30.3-13.41,45.95-4.22,22.6-6.46,45.7-5.71,68.54,0,3.23-4.72,3.23-4.97,0-1.74-40.73,5.46-83.2,22.85-120.45-.25-.5-.99-2.23-.75-2.73-23.59,46.94-25.33,86.67-25.08,123.93,0,1.99-11.18.25-15.89-2.73-1.74,1.49-4.47,1.24-6.21-.5-3.48-3.23-4.47-8.69-5.71-13.41-1.24-4.97-1.49-10.43-1.49-15.4.25-7.95.75-15.65,1.99-23.1,3.97-27.32,13.91-54.14,27.57-77.98,5.22-8.94,10.93-18.38,19.12-24.59,9.69-7.2,19.12-9.93,23.35-8.69,4.22.99,7.2,4.22,8.69,8.2.99,2.73,1.74,5.46,2.48,8.2,3.23,1.24,5.46,3.73,5.46,7.95-.25,3.97-.25,12.17.75,15.89.25,1.49.25,2.73.25,4.22.5,3.23.99,6.71,1.24,9.93,2.48,19.37,5.96,38,9.93,57.12,1.99,9.44,4.72,18.88,5.96,28.31.25.99-.99,1.49-1.49.75l-2.24-4.72c.99,2.73,1.99,5.71,2.73,8.69.25,1.99.5,3.97.25,5.71Z"/>
        <path class="cls-1" d="M966.21,425.56c-7.95,8.44-16.89,16.64-26.82,22.85-9.19,5.96-21.36,11.42-32.78,10.68-7.2-.5-15.65-4.97-16.89-12.91-.99-6.46.5-12.42,1.99-18.63v-.5c-.5-1.24-.75-2.73-.25-4.47l5.96-37.5c-3.23-5.96-1.74-12.17,2.48-17.14.25-.25.5-.5.75-.99.75-4.72,1.74-9.44,2.73-14.4l6.71-33.78c.99-4.22.99-9.93,3.97-12.91,1.74-1.74,3.97-2.98,5.96-1.49.99.74.5,1.74-.5,1.74-2.98-.5-3.23,13.41-3.23,14.9-.5,3.73-.75,7.2-1.24,10.68,1.74-5.71,3.73-11.42,6.21-16.89.5-3.97,1.49-7.7,2.73-11.42.99-2.24,4.22-2.48,4.97,0,3.23,11.18,2.48,23.84,1.99,35.51-.25,1.24-.25,2.73-.25,3.97,4.72-2.48,9.93-4.47,14.9-5.71,20.12-5.46,47.93-17.88,54.64,5.46,4.22,13.91-3.23,42.72-10.93,54.14-6.95,10.18-14.4,19.87-23.1,28.81ZM930.2,381.85c-.25,0-.5.25-.74.25-3.23,17.38-6.95,34.27-11.67,51.16.5-1.74,9.69-5.96,11.67-7.45,16.14-12.67,33.53-32.04,41.23-51.16,1.24-2.98,1.24-4.97.5-6.21-6.46-10.93-34.27,9.44-40.98,13.41Z"/>
      </g>
    </g>
  </g>
</svg>