<svg width="1983" height="836" viewBox="0 0 1983 836" fill="none" xmlns="http://www.w3.org/2000/svg">
<path d="M1978.65 546.766C1992.69 592.958 1966.43 648.209 1941.97 679.457C1904.39 729.725 1849.6 804.901 1777.6 799.467C1758.58 798.108 1737.29 785.428 1733.67 764.143C1731.41 750.557 1734.12 738.782 1736.84 727.461C1739.56 715.233 1739.56 700.289 1741.37 687.608C1742.73 679.909 1749.97 659.53 1747.26 652.284C1741.82 639.151 1744.09 623.754 1754.05 611.526C1758.12 606.092 1758.12 589.335 1759.48 582.995L1766.28 549.936C1769.9 533.18 1769.45 508.272 1782.12 495.592C1784.39 493.327 1786.65 491.516 1789.37 490.61C1790.73 484.723 1792.99 478.383 1797.97 473.401C1803.41 468.42 1809.29 465.702 1815.18 465.702C1816.54 465.702 1817.9 465.702 1818.8 466.155C1821.97 463.438 1826.5 461.626 1830.58 461.626C1839.18 461.626 1846.43 467.061 1848.69 475.213C1854.12 492.874 1854.12 511.895 1853.67 529.557L1861.82 526.839C1872.69 524.122 1885.37 520.046 1896.24 518.235C1945.14 510.536 1969.14 513.253 1978.65 546.766ZM1945.14 649.567C1959.18 628.735 1972.77 576.202 1965.07 550.842C1952.84 508.272 1902.12 530.915 1865.45 540.878C1856.39 543.143 1846.88 546.766 1838.28 551.294C1838.28 549.03 1838.28 546.313 1838.73 544.049C1839.63 522.764 1840.99 499.668 1835.11 479.288C1833.75 474.76 1827.86 475.213 1826.05 479.288C1823.78 486.081 1821.97 492.874 1821.07 500.12C1816.54 510.083 1812.92 520.499 1809.75 530.915C1810.65 524.575 1811.11 518.235 1812.01 511.442C1812.01 508.725 1812.46 483.364 1817.9 484.27C1819.71 484.27 1820.62 482.458 1818.8 481.1C1815.18 478.383 1811.11 480.647 1807.94 483.817C1802.5 489.252 1802.5 499.668 1800.69 507.366L1788.46 568.956C1786.65 578.014 1784.84 586.618 1783.48 595.223C1783.03 596.129 1782.58 596.581 1782.12 597.034C1774.43 606.092 1771.71 617.413 1777.6 628.282L1766.73 696.666C1765.82 699.836 1766.28 702.553 1767.18 704.817V705.723C1764.46 717.045 1761.75 727.914 1763.56 739.688C1765.82 754.18 1781.22 762.332 1794.35 763.237C1815.18 764.596 1837.37 754.633 1854.12 743.764C1872.24 732.442 1888.54 717.498 1903.03 702.1C1918.88 685.797 1932.46 668.135 1945.14 649.567ZM1912.09 597.94C1913.45 600.204 1913.45 603.827 1911.18 609.262C1897.14 644.133 1865.45 679.457 1836.01 702.553C1832.39 705.27 1815.63 712.969 1814.73 716.139C1823.33 685.344 1830.12 654.549 1836.01 622.848C1836.46 622.848 1836.92 622.395 1837.37 622.395C1849.6 615.149 1900.31 578.014 1912.09 597.94ZM1865.9 650.926C1869.97 644.586 1873.6 638.698 1876.77 632.811C1875.86 632.811 1875.41 633.264 1874.5 633.264L1873.6 633.717C1869.97 634.622 1866.8 635.981 1863.63 636.887C1862.73 637.34 1861.82 637.793 1861.37 637.793C1859.56 638.698 1857.29 639.604 1855.48 640.963C1852.31 642.321 1849.14 644.133 1845.97 646.397C1843.71 658.625 1840.99 669.946 1838.73 680.815L1843.71 675.834C1851.41 668.135 1857.75 660.889 1863.18 653.643L1864.54 652.284L1865.9 650.926Z" fill="#FF5200"/>
<path d="M1739.29 727.461C1739.74 730.631 1739.74 734.254 1739.74 736.971C1742 746.481 1740.64 756.444 1735.21 764.143C1732.49 768.219 1728.42 771.389 1724.34 773.654C1723.44 778.182 1722.08 782.258 1719.36 786.334C1691.29 827.092 1646.46 777.729 1638.3 748.293C1631.51 723.385 1626.08 698.024 1621.55 674.022L1620.19 668.135C1617.02 688.514 1615.21 709.346 1614.3 730.631C1613.85 743.311 1618.83 769.125 1608.87 779.541C1606.15 782.258 1602.08 784.07 1598 784.975V788.145C1598.46 793.127 1596.64 798.108 1593.02 801.731C1589.85 805.354 1584.87 807.166 1579.89 807.166C1575.81 807.166 1572.64 806.26 1569.93 804.449C1566.76 804.902 1564.04 804.902 1560.87 804.902C1550 804.902 1527.36 802.637 1519.21 794.486C1503.81 779.541 1502 751.01 1502 730.631C1502.45 709.799 1505.17 688.061 1508.79 667.682C1522.38 594.317 1558.15 522.764 1610.23 469.325C1613.4 466.155 1617.47 464.344 1621.55 462.985C1634.23 460.268 1643.29 449.399 1658.23 449.399C1673.62 449.399 1687.21 459.362 1692.64 474.76C1693.55 477.93 1694.45 481.1 1695.81 484.723C1703.51 490.157 1708.04 499.215 1707.59 509.631C1706.23 544.049 1713.93 578.92 1719.81 612.885C1726.15 647.756 1735.66 682.174 1741.1 717.045C1741.55 720.668 1740.64 724.291 1739.29 727.461ZM1724.79 727.914C1723.44 722.479 1721.62 717.045 1719.81 712.063L1723.89 720.668C1724.79 722.026 1727.06 721.121 1726.61 719.309C1724.34 702.1 1719.36 684.891 1715.74 667.682C1708.49 632.811 1702.15 598.846 1697.62 563.522C1697.17 557.635 1696.27 551.295 1695.36 545.407C1695.36 542.69 1695.36 540.426 1694.91 537.708C1693.1 530.915 1693.1 515.971 1693.55 508.725C1693.55 501.026 1689.47 496.497 1683.59 494.233C1682.23 489.251 1680.87 484.27 1679.06 479.288C1676.34 472.042 1670.91 466.155 1663.21 464.344C1655.51 462.079 1638.3 467.061 1620.64 480.194C1605.7 491.516 1595.29 508.725 1585.78 525.028C1560.87 568.504 1542.76 617.414 1535.51 667.229C1533.25 680.815 1532.34 694.854 1531.89 709.346C1531.89 718.403 1532.34 728.367 1534.61 737.424C1536.87 746.028 1538.68 755.992 1545.02 761.879C1548.19 765.049 1553.17 765.502 1556.34 762.785C1564.95 768.219 1585.32 771.389 1585.32 767.766C1584.87 699.836 1588.04 627.377 1631.06 541.784C1630.61 542.69 1631.96 545.86 1632.42 546.766C1600.72 614.696 1587.59 692.137 1590.76 766.408C1591.21 772.295 1599.81 772.295 1599.81 766.408C1598.45 724.744 1602.53 682.627 1610.23 641.416C1616.12 612.885 1624.72 584.807 1634.68 557.635C1636.04 564.428 1647.81 632.358 1651.44 649.114C1655.96 673.569 1661.4 698.024 1667.74 722.479C1673.17 741.5 1684.95 761.879 1707.13 763.238C1721.62 764.596 1729.78 751.01 1725.25 738.33C1725.7 735.16 1725.25 731.537 1724.79 727.914Z" fill="#FF5200"/>
<path d="M1517.25 675.382C1518.15 685.798 1514.08 695.761 1506.38 703.459C1505.02 706.177 1502.76 708.894 1500.04 710.253C1498.23 716.14 1495.06 721.121 1490.53 725.65C1487.81 730.632 1482.83 734.255 1476.95 735.613C1442.53 742.406 1409.93 751.011 1379.59 761.427C1365.55 766.408 1350.61 771.843 1335.66 777.73C1334.76 778.183 1333.85 778.636 1332.95 778.636L1331.13 779.542C1327.06 781.353 1322.97 783.165 1317.99 784.976C1312.11 789.052 1305.32 792.222 1296.27 794.939C1292.64 796.298 1288.11 798.109 1282.68 799.015L1281.31 799.468H1279.96C1278.61 799.468 1277.7 799.468 1276.34 799.015C1274.08 799.468 1271.81 799.468 1269.55 799.468C1257.32 799.468 1247.81 793.581 1242.83 783.617L1241.46 779.994C1236.48 776.371 1232.42 771.39 1229.7 765.955C1225.62 757.804 1224.27 749.199 1225.62 741.048C1224.27 730.632 1223.36 720.216 1222.45 709.8L1221.1 695.308L1211.13 593.412C1205.25 585.261 1202.08 574.845 1202.98 564.429C1203.89 555.824 1207.05 548.578 1211.58 541.785C1210.22 539.068 1209.32 536.351 1209.78 533.181C1210.23 527.746 1213.4 522.765 1217.93 520.5C1220.64 518.689 1223.36 517.33 1226.08 515.971C1225.62 514.613 1225.62 512.801 1225.62 510.99C1226.08 505.555 1229.25 500.574 1233.78 498.31C1265.93 481.101 1300.34 471.137 1332.95 462.533C1336.57 461.174 1340.19 460.269 1343.36 459.816H1343.81L1348.34 458.91C1366 455.287 1383.66 451.664 1402.23 450.305C1406.76 449.853 1411.28 449.853 1415.81 449.853L1416.72 457.098L1431.66 453.023L1437.55 451.211L1440.72 452.117C1444.34 452.57 1447.96 453.475 1451.13 454.381C1454.3 455.287 1457.02 456.193 1459.74 457.551L1463.36 459.363C1466.08 461.627 1468.79 463.891 1471.06 466.156L1473.78 468.873L1475.13 472.043C1479.21 484.271 1480.57 496.045 1478.3 506.914L1476.95 515.519L1468.79 518.236L1463.36 519.594C1463.36 522.312 1463.36 525.029 1462.91 527.746C1467.89 530.463 1473.32 534.539 1477.4 541.785C1478.3 543.144 1478.76 544.502 1479.66 546.314C1479.66 546.767 1480.12 547.672 1480.57 548.125C1486 552.654 1489.61 558.994 1491.44 566.693C1494.14 580.279 1487.36 595.224 1475.13 602.922C1475.13 603.375 1475.12 603.375 1474.67 603.828C1491.88 606.998 1513.62 621.943 1517.25 675.382ZM1240.57 510.537C1239.66 511.443 1239.66 512.801 1240.57 513.254C1250.53 508.726 1260.49 504.65 1270.91 501.48C1300.79 491.064 1331.59 484.271 1362.38 477.478C1380.04 473.402 1398.15 468.873 1415.81 464.344C1411.74 464.344 1407.66 464.344 1403.59 464.797C1384.12 466.156 1365.55 469.779 1346.98 473.402L1336.57 476.119C1303.96 484.723 1270.45 494.687 1240.57 510.537ZM1494.6 694.855C1500.03 690.779 1503.66 684.439 1503.21 676.287C1501.4 650.474 1492.78 610.621 1457.92 617.867C1452.94 619.226 1448.42 621.49 1443.44 622.849L1425.78 628.283C1414.91 631.906 1404.04 635.982 1393.17 640.058C1386.38 642.322 1379.59 645.039 1372.79 647.757L1334.3 662.701C1324.34 666.777 1314.38 670.853 1304.42 675.382L1303.06 676.287C1303.06 675.382 1303.06 674.929 1303.06 674.476L1300.34 645.039C1313.02 638.699 1325.25 632.359 1338.38 626.925C1359.66 617.867 1380.95 611.074 1402.68 605.187C1413.55 602.47 1424.87 600.205 1435.74 598.394C1446.15 596.129 1456.11 596.582 1465.62 592.054C1473.78 587.978 1479.21 578.015 1477.4 569.41C1476.49 564.881 1473.78 560.353 1469.7 558.088C1469.25 558.088 1469.25 558.088 1468.79 557.635C1468.34 555.824 1467.44 554.013 1466.53 552.201C1466.08 551.295 1465.62 549.937 1464.71 548.578C1458.37 537.709 1447.51 537.256 1436.19 537.709C1430.76 538.162 1425.78 538.615 1420.34 539.521L1414.45 540.879C1399.96 544.955 1385.02 549.031 1370.53 552.654C1344.72 562.164 1319.81 573.033 1294.45 583.902C1294.45 581.638 1291.73 565.334 1291.28 560.806L1292.19 559.9C1306.23 554.013 1320.72 548.578 1335.21 543.597C1340.19 541.332 1385.01 527.746 1408.11 521.406C1409.01 521.406 1409.93 520.953 1410.83 520.5C1421.25 517.783 1431.66 514.613 1441.62 511.443L1464.27 504.65C1466.08 495.592 1464.71 486.082 1461.55 476.572L1454.3 470.685C1452.04 469.779 1449.78 468.873 1447.06 467.967C1444.34 467.062 1441.16 466.609 1437.99 466.156C1414.45 472.496 1390.91 478.836 1366.91 484.271C1336.12 490.611 1305.32 497.404 1275.44 507.82C1265.93 510.99 1255.96 514.613 1246.45 518.689C1246 520.047 1245.1 521.406 1244.64 522.312C1238.3 527.746 1234.23 534.539 1233.32 543.597C1232.42 551.295 1235.13 559.9 1240.57 565.787L1246 617.414L1251.43 671.759C1252.78 687.609 1253.7 703.912 1256.42 719.31C1252.34 731.085 1260.03 744.671 1271.35 749.199C1270.9 751.464 1270.91 753.275 1271.81 755.539C1275.44 763.238 1283.59 763.691 1290.83 762.333C1292.64 762.333 1295.36 761.88 1295.36 761.88C1294.91 762.333 1320.72 754.634 1326.15 751.011L1326.61 750.558C1331.59 748.294 1336.56 746.482 1341.54 744.218L1344.71 742.859C1344.71 742.859 1344.72 742.859 1345.17 742.859C1360.11 736.519 1375.51 731.085 1390.91 725.65C1423.06 714.328 1456.57 705.724 1490.08 699.384C1492.79 698.931 1494.14 697.119 1494.6 694.855ZM1385.47 600.205C1382.76 601.111 1380.49 602.017 1377.78 603.375C1355.13 612.433 1331.59 621.037 1309.4 632.359C1313.02 629.189 1315.74 624.66 1316.64 619.679C1325.25 617.414 1333.85 614.697 1342.91 611.98C1356.95 607.451 1370.98 603.375 1385.02 598.847L1385.47 600.205ZM1284.94 755.539C1293.99 753.275 1302.61 749.652 1311.21 746.482C1319.81 743.765 1327.96 740.595 1336.12 737.425V738.33C1329.32 741.953 1322.53 745.576 1315.28 749.199C1312.11 751.011 1308.48 752.822 1304.86 754.634C1304.41 755.087 1303.96 755.087 1303.51 755.087C1302.15 755.539 1291.73 756.445 1284.94 755.539Z" fill="#FF5200"/>
<path d="M1236.09 466.155C1239.26 471.59 1241.07 477.93 1240.61 484.27C1240.16 492.875 1236.09 500.574 1230.2 505.555C1229.75 512.801 1227.03 525.934 1214.8 534.086C1214.35 534.539 1213.9 534.992 1212.99 535.445C1211.18 542.238 1207.56 550.389 1198.95 556.277C1196.69 558.088 1193.97 559.447 1190.35 560.352C1188.54 561.711 1185.82 562.617 1183.56 563.07C1170.43 565.787 1156.39 568.051 1141.9 570.769V598.394C1141.9 606.545 1141.9 614.697 1141.9 622.849C1141.9 641.869 1142.35 661.795 1141.9 681.269C1142.8 693.949 1143.26 711.158 1144.16 728.367V729.273L1143.71 730.179C1143.26 738.783 1141.44 756.898 1127.86 767.767L1124.69 770.031C1122.43 777.277 1118.8 784.523 1112.01 789.957L1091.18 797.656C1087.56 798.562 1083.48 799.468 1079.86 799.468C1076.24 799.468 1073.07 799.015 1070.35 798.109C1038.65 788.599 1036.84 752.822 1035.94 741.047C1034.58 714.781 1035.48 689.42 1036.39 669.947L1037.75 638.699C1038.65 626.019 1039.11 612.885 1040.01 599.752L1040.46 580.279H1037.29C1025.07 579.826 1012.39 579.826 999.256 578.467C988.841 577.109 976.162 575.297 965.747 568.504C958.049 563.975 951.709 556.73 947.633 548.578C935.407 539.52 929.52 523.67 933.596 508.725C935.86 499.668 941.747 491.969 949.445 486.987V486.535C952.615 474.76 961.671 465.25 972.086 461.174C974.35 455.287 980.237 451.211 986.577 451.211H987.483C1011.48 452.569 1035.94 453.475 1060.39 453.475C1097.07 453.475 1135.56 451.664 1174.5 448.494C1179.94 447.588 1185.37 446.682 1189.9 446.682H1190.8C1192.61 446.229 1194.43 446.229 1197.14 446.229H1197.6C1204.84 445.323 1210.73 444.871 1216.61 444.418C1217.07 443.965 1217.97 443.965 1218.88 443.965C1227.94 443.965 1235.63 451.211 1236.54 460.721C1236.54 462.532 1236.54 464.344 1236.09 466.155ZM1217.97 496.498C1228.84 491.969 1229.29 474.76 1218.88 468.873C1217.97 467.967 1217.07 467.514 1216.16 467.061C1217.07 466.608 1218.43 466.608 1219.33 466.608C1223.86 465.703 1222.5 458.004 1218.43 458.457C1211.63 459.362 1204.84 459.815 1198.05 460.721C1195.33 460.268 1192.61 460.721 1190.35 460.721C1185.82 461.174 1181.29 461.627 1176.31 462.532C1113.37 467.967 1049.97 469.326 986.577 465.703C985.218 465.25 984.766 467.967 986.124 467.967C1010.58 472.043 1035.03 474.76 1059.48 476.119C1059.48 476.571 1059.03 477.024 1059.03 477.477C1034.12 477.477 1009.67 475.666 984.765 473.401C974.803 472.496 965.747 481.1 963.03 490.158C960.313 501.026 965.747 511.895 974.803 516.877C977.52 524.123 983.407 530.463 989.294 534.539C997.445 539.52 1007.41 540.879 1016.92 542.238C1028.69 543.143 1040.92 543.596 1053.14 543.596H1070.8C1070.8 548.125 1070.8 553.107 1070.8 558.088L1069.9 578.014C1068.99 601.564 1067.63 625.113 1066.28 648.209C1065.37 671.306 1064.92 694.855 1066.28 717.951C1067.18 735.613 1071.26 756.445 1090.28 762.332C1099.78 765.05 1111.11 759.615 1114.27 749.652C1117.44 740.595 1117.9 727.914 1119.71 719.763V736.972C1119.26 743.312 1119.26 749.652 1118.8 755.992V756.898C1126.95 750.558 1128.77 739.689 1129.67 728.82C1129.22 712.97 1128.31 697.119 1127.86 681.269C1127.86 653.644 1127.41 626.019 1127.41 598.394C1127.41 578.467 1127.86 558.541 1127.86 538.615C1150.95 535.445 1173.6 531.369 1196.69 526.84C1198.05 526.84 1198.95 525.934 1199.86 525.029C1202.12 524.576 1204.84 523.67 1206.65 522.311C1213.9 517.33 1215.71 509.178 1216.16 501.026C1217.07 499.668 1217.52 498.309 1217.97 496.498ZM1016.92 531.369C1006.05 530.916 994.275 527.746 987.03 520.953C1004.69 526.387 1022.8 529.557 1040.92 531.369C1032.77 531.822 1024.61 531.822 1016.92 531.369Z" fill="#FF5200"/>
<path d="M935.058 490.611C935.964 510.084 935.511 529.558 935.058 548.578V551.295C934.605 559.447 934.605 568.052 934.152 576.656C933.699 598.847 932.794 621.49 932.341 644.134C930.53 688.968 929.171 725.197 927.36 758.257L926.907 762.786L924.19 766.409C921.02 770.937 916.492 774.56 911.511 777.277V780.447L911.058 784.976L908.341 788.599C903.36 795.392 896.567 799.921 888.416 802.185C884.794 803.544 881.171 803.997 877.095 803.997C866.68 803.997 857.171 799.468 850.378 791.769C840.416 788.599 833.624 779.995 831.36 768.22C829.548 759.615 830.001 750.558 830.454 742.859C830.907 740.142 830.907 737.878 830.907 735.613L832.265 702.101C832.265 695.308 832.718 688.515 832.718 681.269V666.777C832.718 666.777 832.718 655.908 832.718 648.21L828.19 656.361C828.19 656.361 791.963 720.669 790.605 723.386C789.699 727.462 788.794 731.538 788.341 736.066L787.888 736.972C785.624 748.747 782.454 765.503 768.416 774.56C764.794 784.523 759.36 794.486 747.133 799.921C744.416 800.827 740.794 802.185 736.265 802.185C733.548 802.185 731.284 801.732 728.567 800.827C717.699 799.921 707.284 793.581 699.586 782.712L696.869 778.636L697.322 773.654C700.492 727.009 705.02 665.871 714.982 605.187C718.152 583.902 721.775 560.806 727.209 537.709L736.718 486.988C738.53 478.383 745.775 472.043 754.379 471.59L754.831 470.232L758.454 467.062L762.529 464.345C768.869 460.269 776.567 458.004 783.812 458.004C794.228 458.004 803.737 462.533 808.718 471.138C812.341 473.855 815.511 477.478 817.775 482.006C825.02 494.687 821.397 506.461 819.133 515.066L817.775 518.689C815.963 525.482 814.605 531.822 813.246 538.162C819.586 528.199 825.926 518.689 832.718 510.084C833.171 509.631 833.624 508.726 834.982 507.367C839.511 500.574 843.586 494.234 848.567 487.894C852.19 482.912 873.473 456.193 896.567 456.193C905.624 456.193 914.228 460.722 920.114 468.42C921.926 471.138 923.284 473.855 924.643 477.025C926.001 477.931 927.812 478.836 929.624 480.195L934.605 484.271L935.058 490.611ZM920.567 550.843C921.02 530.916 921.926 510.99 920.567 491.517C918.756 489.705 916.039 488.347 913.322 487.441H911.964C911.964 483.818 911.058 480.195 908.341 477.025C894.303 458.457 868.492 485.177 859.888 496.498C844.492 516.877 831.813 538.615 819.586 560.806C813.699 571.675 783.36 627.378 782.454 633.718C783.36 626.019 784.265 618.32 785.624 610.621L793.775 563.976C796.945 547.673 799.662 531.369 804.19 515.066C806.454 506.461 810.529 497.857 805.548 488.799C803.737 485.629 801.02 482.459 797.85 480.648C797.85 480.195 797.397 480.195 797.397 479.742C791.963 469.779 778.378 470.685 770.68 476.119C769.775 476.572 768.416 477.478 767.511 478.383C765.699 486.988 762.982 495.593 760.718 504.197C753.473 530.463 748.945 558.089 744.869 585.261C735.813 640.511 730.831 696.667 727.209 752.37C732.19 759.163 739.435 764.597 748.039 764.597C750.756 766.409 754.378 765.956 757.095 764.597C769.322 759.163 772.039 745.124 774.303 733.349C775.209 727.915 776.114 722.933 777.473 717.951C780.19 712.517 783.36 707.083 786.53 701.648C804.643 669.042 849.926 585.714 855.812 577.109C858.529 573.939 860.794 570.316 863.058 567.146C862.605 600.205 863.511 633.265 862.605 666.777L861.246 713.876C860.794 723.386 858.982 733.802 861.246 742.859C862.605 749.199 865.322 755.087 872.114 756.445C873.02 756.898 873.473 756.898 874.379 756.898C879.812 765.956 890.228 769.579 900.19 766.409C905.624 765.05 909.699 761.88 912.869 757.804C915.133 719.763 916.492 681.722 917.85 643.681C919.209 612.886 919.662 581.638 920.567 550.843ZM719.963 750.105C721.322 728.82 723.133 707.083 725.397 685.345C729.02 646.851 734.001 608.81 739.888 570.769C743.058 551.748 746.68 532.728 750.303 514.16C751.661 507.82 756.19 495.593 753.473 489.252C752.114 486.535 745.322 485.629 744.416 489.705C728.567 568.052 718.605 648.662 718.605 728.82L717.246 740.142C717.699 744.218 718.605 747.388 719.058 748.747C719.511 749.652 719.963 751.011 719.963 750.105ZM872.567 689.421V690.779C872.567 700.742 873.02 711.158 873.02 721.574V723.386C871.662 732.443 868.945 741.501 871.209 750.558C868.492 746.029 867.133 739.236 867.586 735.161C868.039 726.103 868.492 717.499 869.397 708.441L870.756 688.968C871.209 688.968 871.662 689.421 872.567 689.421Z" fill="#FF5200"/>
<path d="M686.729 690.778C699.408 701.194 705.748 717.95 704.389 735.159C703.031 754.18 705.748 776.823 697.597 794.485C694.88 800.372 690.351 804.901 684.465 808.071C684.012 810.788 683.106 813.506 681.748 816.676C676.766 827.545 664.993 834.338 651.861 834.338C644.615 834.338 637.37 832.073 631.484 828.45C619.71 820.299 614.276 809.883 610.653 800.372C607.483 791.768 605.672 782.711 604.767 774.106C588.917 772.747 573.521 771.389 559.031 770.483C545.899 769.577 533.219 769.124 521.446 768.219C520.993 778.182 518.729 788.598 512.842 797.655C510.125 801.278 506.955 804.448 502.88 806.713C501.521 811.241 499.71 815.77 496.993 819.846C491.559 827.545 482.955 832.526 473.446 833.885C471.181 834.791 468.012 835.243 464.842 835.243H464.389C462.578 835.696 460.766 835.696 458.955 835.696C450.351 835.696 438.125 832.073 428.163 815.317C413.219 788.598 386.049 743.764 405.521 713.874C408.691 709.346 412.314 705.27 416.842 702.1C417.748 698.477 419.106 694.854 421.37 691.684C425.899 684.891 431.785 679.456 438.578 675.833C444.465 671.757 451.71 668.587 458.502 667.682C460.314 658.171 461.672 649.567 463.483 641.868C468.012 623.753 473.899 605.639 480.691 588.429C496.993 546.313 522.351 484.27 573.974 477.024C576.691 476.571 579.408 476.571 582.125 476.571C601.144 476.571 616.087 485.628 622.88 501.026C623.785 502.384 624.238 504.196 624.691 505.554C646.88 515.517 652.314 542.237 654.125 563.975C655.936 582.995 657.748 599.751 660.012 615.602C663.634 638.245 666.804 655.454 669.974 671.305L672.691 682.626C677.672 684.438 682.653 687.155 686.729 690.778ZM689.898 734.254C691.257 721.12 688.54 711.61 678.125 702.1C676.314 700.741 674.955 699.383 672.691 698.477C668.616 696.212 664.54 694.854 660.465 693.495C659.106 687.155 657.295 680.815 655.936 674.475C652.314 655.454 649.144 636.887 645.974 617.866C643.257 600.204 641.446 582.995 640.087 565.333C638.729 547.671 637.37 530.915 621.521 520.046C618.804 518.235 616.087 517.329 612.917 517.329C612.465 513.706 611.559 510.083 610.2 506.46C603.861 493.327 589.37 489.251 576.238 491.063C558.125 493.78 544.54 510.536 534.578 524.122C522.351 540.878 513.295 559.446 506.502 578.919C502.427 589.788 499.257 601.11 496.087 612.432C492.917 624.659 490.2 636.887 488.389 649.114C486.578 658.624 486.578 667.682 487.483 677.192H487.031C479.332 677.192 470.729 678.098 463.936 681.268C457.597 681.721 451.257 683.985 446.276 688.061C441.295 690.325 436.766 694.401 433.597 699.383C425.898 711.157 429.974 725.649 434.502 737.424C440.389 754.18 447.634 770.483 456.691 785.881C461.672 794.485 468.917 801.278 479.333 798.561C481.597 799.014 484.314 798.561 486.125 797.655C492.012 797.202 497.899 794.032 501.068 789.504C509.672 776.823 507.408 757.35 505.144 743.311L502.427 730.631C509.672 731.083 516.917 731.083 524.163 731.536C541.37 731.989 558.578 732.895 575.785 734.254C593.446 735.159 611.559 734.706 629.219 739.235L633.295 740.594C634.653 751.463 636.012 763.237 640.087 772.747C643.257 781.805 647.332 789.051 655.483 794.032C664.087 799.92 679.483 799.014 684.465 788.145C691.257 774.106 687.634 755.086 689.446 739.688C689.899 737.876 689.898 736.065 689.898 734.254ZM588.917 612.884C592.54 628.735 595.71 644.585 599.785 660.436C602.05 668.587 603.861 677.192 606.578 685.344V686.249C602.502 685.796 598.427 685.344 593.899 685.344C585.295 683.985 576.691 683.079 568.087 682.173L557.219 680.815C557.672 662.7 558.578 644.585 561.295 626.471C563.106 610.62 566.276 594.77 570.351 579.372C572.163 571.673 574.427 564.427 576.691 557.181C577.144 559.899 578.049 562.616 578.502 565.333L588.917 612.884ZM564.012 577.561L563.559 579.372C563.559 579.372 563.559 579.372 563.559 579.825C563.559 578.919 564.012 578.466 564.012 577.561ZM539.559 679.003C540.465 674.928 547.257 609.261 563.559 579.825C559.031 594.317 555.408 609.261 552.691 623.753C549.068 642.321 546.351 660.889 545.446 679.456C543.634 679.003 541.37 679.003 539.559 679.003ZM628.766 688.514C628.766 685.344 626.049 646.85 625.144 638.245L636.465 689.872C634.653 689.419 632.842 689.419 631.484 688.967L628.766 688.514Z" fill="#FF5200"/>
<path d="M429.899 567.146C434.88 599.299 436.238 627.83 433.521 655.002C430.804 683.08 425.823 712.064 409.521 735.613C406.352 740.142 403.182 744.218 399.559 747.841C397.748 751.464 395.936 754.634 393.672 757.804C387.786 766.408 381.446 773.201 374.653 779.089C363.333 789.957 349.748 796.751 335.257 798.562C332.54 799.015 329.37 799.468 326.201 799.468C323.937 799.468 321.219 799.015 318.955 799.015C316.238 799.468 313.521 799.468 310.352 799.468C294.955 799.468 278.201 793.128 265.521 782.712C244.691 765.05 231.559 738.783 225.672 702.101C215.71 638.246 226.578 574.844 256.918 524.123C262.352 510.99 269.144 499.215 276.842 489.252C277.748 487.441 279.106 486.535 280.465 485.629C284.087 478.836 288.163 472.496 292.691 467.061C295.408 462.986 299.937 461.174 304.465 461.174C306.729 461.174 308.993 461.627 311.257 462.533C315.333 459.815 319.408 458.004 323.936 457.098C331.182 454.381 338.427 452.57 344.767 452.57C347.936 452.117 351.106 452.117 353.823 452.117C361.069 452.117 367.408 453.475 372.842 456.645C378.729 460.268 383.257 465.703 387.333 471.59C393.672 472.949 399.106 477.025 402.276 482.912C408.616 495.139 415.408 509.178 420.389 523.67C424.012 535.898 427.182 549.937 429.899 567.146ZM419.031 653.644C422.201 625.113 420.389 597.035 415.861 568.957C413.597 555.371 410.88 541.332 406.804 527.746C402.276 514.613 395.937 501.932 389.597 489.705C387.333 485.629 382.804 484.723 379.182 486.082C376.012 480.195 371.484 472.496 365.597 468.873C360.163 465.703 352.465 465.703 346.125 467.061C340.238 466.609 334.352 468.42 328.465 470.684C313.974 473.854 303.106 487.893 295.408 504.65C294.502 504.65 293.144 504.197 291.785 504.65C293.597 499.668 295.408 494.686 297.672 489.705C299.484 485.176 302.201 480.647 304.918 476.119C305.37 475.213 304.465 474.76 304.012 475.666C296.314 485.629 290.427 496.498 285.899 508.273C285.446 508.725 285.446 509.178 284.993 509.178C254.653 559.9 246.502 619.679 255.559 677.646C260.087 704.365 269.144 731.537 290.427 749.652C302.653 759.615 319.408 765.05 334.352 762.332C339.333 762.785 344.314 762.785 349.295 762.332C361.974 760.521 372.389 754.634 380.993 746.029C387.333 740.595 392.767 734.255 397.748 727.461C412.691 706.177 416.767 678.552 419.031 653.644ZM359.257 546.767C360.616 553.107 361.521 559.9 362.88 566.693C366.503 588.883 367.861 611.98 369.672 634.623C369.672 656.814 366.955 679.457 359.257 700.742C357.899 706.177 355.635 711.158 352.918 716.14C350.201 721.121 346.125 725.197 340.691 727.009C321.219 732.896 305.37 714.328 298.125 699.384C302.653 702.101 308.54 703.459 313.974 702.101C315.786 701.648 317.597 700.742 318.955 699.836C312.163 670.4 308.54 639.605 309.899 608.81C310.804 598.394 311.71 587.978 313.521 577.562C313.974 577.109 313.974 576.656 314.427 575.75C318.05 557.183 323.936 538.615 332.54 521.859C334.352 518.689 336.163 515.066 338.88 513.254C313.069 567.599 312.163 634.17 324.842 693.043C327.106 688.968 327.559 684.439 326.653 679.457C321.219 645.945 320.767 611.074 324.842 577.562C327.106 560.353 331.182 543.596 336.163 527.293C337.521 522.764 339.333 516.877 342.05 511.896H344.314C344.767 511.896 345.672 512.348 346.125 512.801C347.937 515.971 349.295 519.594 350.653 522.764C353.823 530.463 356.54 538.615 359.257 546.767ZM346.125 696.213C352.918 676.287 352.465 655.455 352.012 634.17C352.012 606.092 350.653 577.109 345.219 549.937V549.031C342.05 559.9 340.238 569.863 338.88 579.373C334.804 612.885 335.257 645.945 340.691 676.74C342.05 684.892 341.144 693.043 337.521 699.384L330.729 713.423C331.182 713.875 332.087 713.875 332.993 713.875C333.899 713.875 335.257 713.875 336.163 713.423C336.616 712.97 338.427 712.517 340.691 709.347L346.125 696.213ZM297.672 698.931C298.125 698.931 298.125 698.931 298.125 699.384C298.125 698.931 297.672 698.931 297.672 698.931Z" fill="#FF5200"/>
<path d="M250.784 574.391C253.954 593.864 246.709 606.092 239.463 613.79C237.652 616.961 234.935 620.131 232.218 623.301C229.954 628.282 226.784 632.811 223.614 635.981C212.294 654.096 191.916 663.606 162.482 663.606C157.954 663.606 153.878 663.606 149.803 663.153C152.067 676.286 154.331 689.42 155.237 702.553C157.048 717.95 156.143 730.178 152.52 740.594C149.35 751.01 143.463 760.52 134.86 767.766C131.69 776.371 125.803 784.069 118.558 790.41C115.388 793.127 106.784 799.467 96.3691 799.467C89.5767 799.467 83.237 796.297 78.7087 790.862C77.803 789.957 76.8974 789.051 76.4446 787.692C73.2748 786.787 71.0106 784.522 69.1993 781.805C64.671 774.559 63.7653 766.86 62.8597 760.067C62.4069 758.709 62.4068 757.35 62.4068 756.444L51.0861 686.25C48.3691 670.852 46.1049 654.549 43.8408 637.793C31.6143 633.264 19.8407 627.829 8.51997 621.489C2.18035 618.319 -0.989411 611.526 0.82191 604.733C1.27474 603.374 1.72758 602.016 2.63324 600.657C2.18041 599.751 1.7275 598.846 1.7275 597.487C-1.44231 587.977 -0.0837248 577.561 4.44458 569.409C7.16156 564.428 11.6898 560.352 16.6709 557.635C17.1237 554.012 18.4822 550.389 20.2936 547.219C20.2936 547.219 20.7464 546.766 20.7464 546.313C17.5766 535.444 13.9539 524.575 10.3313 514.612C8.06715 507.819 8.51995 500.12 11.6898 493.78C13.9539 489.704 16.671 486.081 20.7464 483.364C21.6521 479.741 23.9162 476.571 26.6332 473.854C26.6332 473.401 27.0861 472.495 27.5389 471.589C29.803 467.514 32.5199 463.891 36.5954 461.173C37.9539 456.192 41.1238 452.116 45.6521 448.946C53.3502 443.512 62.4068 440.794 72.8219 440.794C83.6899 440.794 95.9163 443.964 109.048 450.757C124.897 458.909 139.841 468.419 153.426 477.477C181.048 495.592 209.124 517.329 236.294 541.784C241.275 546.766 244.897 552.653 245.35 558.993C248.067 564.428 249.879 569.409 250.784 574.391ZM228.143 604.733C234.935 598.393 238.558 589.335 236.746 576.655C235.841 572.126 234.029 567.598 231.312 563.069C231.765 559.446 230.407 555.823 226.784 552.653C200.973 529.557 174.256 508.272 145.728 489.251C131.69 480.194 117.652 471.137 102.709 463.438C88.2182 456.192 68.7464 450.305 53.803 460.721C51.086 462.985 48.8219 466.155 49.2748 470.231C42.4823 472.495 37.0484 479.741 39.7654 487.44C46.5578 506.913 52.4446 526.839 57.8786 546.766L55.1615 545.407C47.0105 542.237 36.5955 547.671 32.52 554.465C27.5389 563.069 29.8031 577.108 39.7654 581.637C49.7276 586.165 59.6898 590.694 70.1049 594.77C70.5577 597.487 71.4634 599.751 71.9162 602.469C58.3313 597.487 44.7464 592.053 31.6143 585.713C30.7086 585.26 30.2559 586.165 30.7087 586.618C44.2936 593.864 58.3313 600.204 72.3691 605.639C75.0861 624.206 77.8031 643.227 80.9729 661.795C83.237 677.645 85.9539 693.043 88.2181 708.44L92.2936 731.989C93.1993 738.33 93.1992 746.481 96.8219 751.916C97.2747 752.369 97.2747 752.369 97.2747 751.916C99.0861 746.481 97.2747 739.688 96.8219 733.801C95.4634 726.102 94.5577 718.403 93.6521 710.252C92.7464 705.723 92.2936 701.194 91.8407 696.213C93.1992 704.364 95.0106 712.063 97.2747 719.309C97.7276 725.196 98.6333 731.084 99.5389 736.518C100.445 744.67 100.445 753.274 105.426 759.614C110.86 766.407 120.369 761.426 125.35 757.35C131.69 751.463 136.671 744.217 138.935 736.518C142.105 726.102 142.105 714.78 141.199 703.911C138.935 681.721 134.407 659.077 130.331 636.887C129.426 631.905 128.067 626.471 127.162 621.036C131.237 621.942 135.313 622.395 139.388 623.301C167.463 627.829 211.841 634.17 228.143 604.733ZM173.803 556.276C184.218 562.616 195.992 568.956 202.331 578.467C203.237 579.372 203.69 580.278 204.143 581.184L200.52 582.09C197.803 582.542 194.633 582.995 191.463 582.995C176.067 584.354 160.671 582.542 145.728 579.372C135.765 577.108 126.256 574.391 116.746 571.221C113.124 553.559 108.595 536.35 104.067 519.141C114.482 523.669 124.445 528.651 134.407 533.633C147.539 540.878 160.671 548.577 173.803 556.276ZM150.256 616.961C161.577 618.772 177.426 619.678 192.822 617.866C192.822 618.319 202.331 617.413 202.331 617.866L185.124 620.583C167.463 622.395 148.897 619.678 131.237 616.961C129.426 616.961 128.067 616.508 126.256 616.055C125.803 615.149 125.803 613.79 125.35 612.432C133.954 614.243 142.105 616.055 150.256 616.961ZM127.614 696.666L126.709 687.608C127.161 687.608 126.256 682.174 126.709 681.721L129.426 695.76C132.596 710.705 134.407 726.102 128.067 740.141C126.709 741.5 125.35 742.405 123.539 743.311L122.633 741.953C129.879 728.366 128.973 711.61 127.614 696.666Z" fill="#FF5200"/>
<path d="M1619.16 306.592C1620.97 314.29 1621.43 321.083 1620.52 326.971C1619.16 336.934 1613.28 344.633 1605.12 348.256C1604.67 348.708 1604.67 348.708 1604.67 349.161C1603.31 360.483 1596.52 368.635 1586.11 371.352C1585.2 371.805 1584.29 371.805 1583.39 372.258C1577.05 376.333 1569.8 379.051 1562.11 379.051C1548.52 379.051 1535.39 370.899 1529.05 358.672C1526.33 353.69 1524.52 348.256 1524.07 342.368C1510.94 316.102 1491.01 288.93 1462.48 256.776C1459.77 254.059 1457.5 251.342 1455.24 248.624L1457.95 271.721C1459.77 281.684 1461.58 291.647 1463.39 300.704C1463.84 302.063 1464.29 303.874 1465.2 305.686C1466.56 308.856 1467.92 312.026 1468.82 316.555L1471.54 330.141C1473.8 339.651 1470.63 349.161 1463.84 354.596C1461.58 356.407 1458.86 358.219 1456.14 360.03C1455.69 366.823 1452.97 372.711 1447.99 376.786C1438.03 384.938 1426.26 389.467 1414.03 389.467C1409.5 389.467 1404.52 389.014 1399.99 387.655H1399.09C1383.24 387.655 1369.2 378.145 1362.86 363.653C1357.88 351.879 1356.52 339.651 1355.61 328.782C1355.61 325.612 1355.16 322.895 1354.71 319.725C1351.09 287.118 1347.46 257.229 1345.65 226.887C1343.39 197.45 1341.58 167.108 1340.67 133.595L1340.22 128.614C1340.22 122.274 1339.77 115.481 1339.77 108.688V108.235C1339.77 102.8 1339.77 95.5544 1343.39 88.3085C1345.65 83.3269 1349.28 79.2511 1353.35 76.5339L1354.26 75.6281C1355.16 73.8167 1356.07 72.0052 1356.97 70.6466C1357.43 69.288 1358.33 67.4765 1359.24 66.1179C1361.5 61.1363 1365.12 57.0605 1369.2 54.3433L1370.11 53.4374C1375.99 42.1158 1387.77 35.3228 1400.44 35.3228C1413.12 35.3228 1425.35 41.2101 1432.6 51.1731C1438.03 58.872 1439.84 67.4765 1438.03 76.081L1440.75 78.3453C1443.46 81.0626 1444.82 84.6854 1444.82 88.7614V91.4786C1444.82 100.989 1445.28 110.499 1445.28 119.556C1451.16 117.292 1456.14 114.575 1461.12 112.311C1477.43 104.612 1496.44 95.5544 1515.01 85.5913C1524.97 80.1568 1534.03 75.1753 1542.18 70.1937C1543.09 69.7408 1544.44 69.288 1545.35 68.3822C1552.14 64.3064 1561.65 58.4191 1572.07 58.4191C1574.78 58.4191 1577.05 58.872 1579.31 59.3248C1587.01 61.5891 1592.9 66.5707 1596.97 73.3638C1601.5 74.7224 1605.58 77.4396 1608.29 81.9683C1611.46 87.8556 1611.92 94.6487 1608.75 100.989C1603.77 110.046 1598.33 118.198 1591.54 125.444C1580.67 144.917 1565.27 159.409 1547.61 172.089C1569.8 195.639 1587.46 222.811 1600.6 252.247C1608.75 270.815 1615.09 288.93 1619.16 306.592ZM1597.88 335.575C1608.75 332.405 1607.39 318.819 1605.58 309.762C1601.05 292.1 1595.16 274.891 1587.46 258.135C1572.52 223.716 1550.33 192.921 1522.71 167.108C1519.99 164.391 1515.46 167.561 1515.92 170.731L1509.58 165.296C1513.65 163.032 1517.27 161.22 1521.35 158.956C1550.33 142.653 1580.22 124.538 1596.07 94.6487C1598.78 89.2142 1592.44 84.2327 1587.92 87.8556L1586.56 89.2142C1586.56 81.9683 1582.94 75.1753 1575.69 73.3638C1566.63 70.6466 1556.67 78.7982 1549.43 82.8741C1514.11 103.253 1469.73 124.991 1432.14 141.294C1431.24 124.538 1430.78 108.235 1430.33 91.4786V88.3085C1430.33 88.3085 1429.88 87.8556 1429.88 88.3085C1426.71 107.329 1424.44 126.35 1422.63 145.823C1421.28 146.276 1420.37 147.182 1419.01 148.54L1420.37 107.782C1420.82 97.3659 1420.37 86.497 1423.09 77.4396C1431.69 52.9847 1394.56 38.04 1382.33 60.2306C1381.43 62.0421 1380.52 63.4007 1380.07 65.2121C1370.56 67.4765 1369.65 78.3453 1370.11 86.497C1370.11 94.6487 1370.56 102.8 1370.56 110.952C1371.92 142.2 1373.28 172.995 1375.54 203.79C1377.8 234.585 1381.43 265.38 1385.05 296.176C1386.41 309.762 1386.41 323.348 1391.84 336.028C1396.37 345.991 1407.24 352.331 1417.65 350.973C1430.33 355.502 1443.92 352.784 1454.78 343.727C1457.95 341.01 1458.41 336.481 1457.5 332.858C1455.69 322.442 1451.61 312.479 1449.35 303.874C1447.54 293.911 1445.28 283.948 1443.92 273.985C1440.75 248.624 1438.03 223.264 1435.77 198.356L1446.63 193.827C1449.35 192.921 1451.61 192.016 1453.88 191.11C1467.01 200.62 1477.88 212.848 1488.75 225.075C1513.65 252.7 1537.65 283.042 1554.41 317.008C1554.41 321.536 1555.31 325.612 1557.58 329.688C1561.2 337.387 1569.35 342.368 1577.95 342.368C1591.99 342.368 1600.6 330.594 1599.24 318.366C1596.97 292.1 1552.14 212.395 1534.94 191.11C1561.2 220.094 1581.12 252.247 1594.71 288.93C1597.88 297.987 1611.92 327.876 1597.43 333.764C1596.52 334.217 1596.97 336.028 1597.88 335.575Z" fill="#FF5200"/>
<path d="M1341.33 80.6108C1342.69 100.084 1341.79 119.558 1341.33 138.578V141.295C1341.33 149.447 1340.88 158.051 1340.88 166.656C1339.97 188.847 1339.52 211.49 1338.62 234.134C1337.26 278.968 1335.45 315.197 1333.63 348.257V352.785L1330.92 355.955C1327.29 360.937 1323.22 364.56 1318.24 367.277C1317.79 368.183 1317.79 369.542 1317.79 370.447V374.976L1315.07 378.146C1310.09 385.392 1302.84 389.921 1295.14 392.185C1291.07 393.544 1287.45 393.997 1283.82 393.997C1272.95 393.997 1263.45 389.468 1256.65 381.769C1247.14 378.599 1240.35 369.994 1237.64 358.22C1235.83 349.615 1236.73 340.558 1237.18 332.859C1237.18 330.142 1237.64 327.878 1237.64 325.613C1237.64 314.292 1238.09 303.423 1238.54 292.101C1239 285.308 1239 278.515 1239.45 271.269V256.777C1239.45 256.777 1239.45 245.908 1239.45 238.209L1234.47 246.361C1234.47 246.361 1198.69 310.669 1197.34 313.386L1194.62 326.066V326.972C1192.35 338.746 1188.73 355.503 1174.69 364.56C1171.52 374.523 1165.64 384.486 1153.41 389.921C1151.15 390.826 1147.07 392.185 1142.54 392.185C1140.28 392.185 1137.56 391.732 1135.3 390.826C1123.98 389.921 1114.01 383.581 1106.77 373.165C1104.96 371.806 1103.15 369.542 1102.69 367.277H1101.79C1100.88 362.749 1100.43 358.22 1099.98 353.238V350.521L1101.34 341.917V340.105C1101.34 264.929 1109.94 185.677 1127.6 99.1784C1128.96 91.4797 1134.84 86.0452 1142.09 84.2337L1143.45 76.9878C1145.26 68.3833 1152.5 62.0431 1161.11 61.5903L1161.56 60.2317L1165.18 57.0616L1169.26 54.3444C1175.15 50.2685 1182.84 48.0042 1190.09 48.0042H1194.17C1196.43 45.7398 1199.6 43.9283 1202.77 43.0226C1202.77 40.7583 1203.22 38.4939 1203.67 36.2296C1205.49 28.5308 1212.28 22.1906 1219.52 20.832C1220.88 20.3791 1223.15 19.9263 1225.41 19.9263C1229.94 19.9263 1234.01 21.2849 1238.09 24.455L1240.81 26.7193C1244.88 23.5492 1248.95 18.5677 1253.03 13.5861L1255.75 10.416C1261.63 3.62297 1269.33 0 1277.94 0C1289.26 0 1300.58 7.2459 1306.46 17.6619C1311.45 26.7193 1311.45 37.5882 1306.46 46.6456C1314.16 47.5513 1321.41 51.6271 1326.39 58.4202C1328.2 61.1374 1330.01 63.8546 1330.92 67.0247C1332.73 67.9304 1334.54 68.8362 1335.9 70.1948L1341.33 74.2706V80.6108ZM1217.71 39.8525C1213.18 56.6087 1229.49 69.7419 1244.88 71.5534C1254.39 72.912 1263.45 69.7419 1271.6 65.2132C1281.11 58.873 1287.45 49.8157 1293.33 40.3054C1303.75 24.0021 1279.29 4.98156 1266.62 19.9263C1260.73 26.7193 1253.94 35.3238 1246.24 40.7583C1243.52 42.5697 1241.26 42.5697 1237.18 42.5697C1236.28 42.5697 1235.37 42.1169 1234.47 41.664L1232.66 40.3054C1232.2 39.8525 1231.75 39.3997 1231.75 39.3997C1231.3 37.5882 1230.39 36.6824 1229.03 35.7767C1227.22 33.9652 1224.96 33.9652 1222.69 34.871C1219.98 35.3238 1218.17 37.5882 1217.71 39.8525ZM1327.29 140.842C1327.75 120.916 1328.2 100.99 1327.29 81.5165C1325.03 79.705 1322.77 78.3464 1320.05 77.4407H1318.69C1318.24 73.3649 1317.33 70.1948 1315.07 67.0247C1301.03 48.457 1274.77 75.1764 1266.16 86.4981C1251.22 106.877 1238.09 128.615 1226.32 150.806C1220.43 161.674 1214.09 172.09 1208.66 182.959C1204.58 189.752 1199.6 196.093 1197.34 203.791C1195.07 209.679 1189.64 218.283 1188.73 223.718C1189.64 216.019 1190.54 208.32 1191.9 200.621C1194.62 185.224 1197.34 169.373 1200.5 153.976C1203.22 137.672 1206.39 121.369 1210.47 105.066C1212.73 96.4612 1216.81 87.8567 1211.83 78.7993C1210.01 75.6292 1207.3 72.4591 1204.13 70.6477C1204.13 70.1948 1204.13 70.1948 1203.67 69.7419C1198.69 59.7788 1185.11 60.6845 1176.96 66.119C1176.05 66.5718 1175.15 67.4776 1174.24 68.3833L1167.45 94.1969C1160.2 120.463 1155.67 148.088 1151.15 175.261C1142.54 230.511 1137.56 286.666 1133.94 342.369C1138.47 349.162 1146.17 354.597 1154.32 354.597C1157.03 356.408 1161.11 355.955 1163.83 354.597C1176.05 349.162 1178.32 335.123 1180.58 323.349C1181.49 317.914 1182.84 312.933 1183.75 307.951L1193.26 291.648C1193.26 291.648 1248.95 191.564 1262.54 167.109L1269.79 157.146C1268.88 182.959 1267.97 293.007 1267.52 303.875C1267.52 313.386 1265.71 323.802 1267.52 332.859C1268.88 339.199 1272.05 345.087 1278.84 346.445C1279.29 346.898 1280.2 346.898 1280.65 346.898C1286.54 355.956 1296.5 359.578 1306.92 356.408C1312.35 355.05 1316.43 351.88 1319.6 347.804C1321.41 309.763 1323.22 271.722 1324.58 233.681L1327.29 140.842ZM1125.79 338.746C1126.24 339.652 1126.69 341.011 1126.69 340.105C1132.58 253.607 1142.09 167.562 1161.11 82.4223C1162.92 76.0821 1152.5 73.3649 1151.15 79.705C1134.84 158.051 1124.88 238.662 1125.34 318.82L1123.98 330.142C1123.98 334.218 1124.88 337.388 1125.79 338.746ZM1233.11 108.236C1231.3 108.236 1229.03 108.236 1227.22 107.783C1226.32 107.783 1225.41 107.783 1224.5 107.33V108.689C1222.69 115.482 1221.34 121.822 1219.98 128.162C1224.5 121.369 1228.58 114.576 1233.11 108.236ZM1278.84 279.421V280.779C1279.29 290.742 1279.29 301.158 1279.75 311.574V313.386C1277.94 322.443 1275.67 331.501 1277.94 340.558C1275.22 336.029 1273.86 329.236 1273.86 325.16C1274.31 316.103 1275.22 307.498 1275.67 298.441L1277.03 278.968C1277.48 278.968 1278.39 279.421 1278.84 279.421Z" fill="#FF5200"/>
<path d="M1101.7 265.382C1102.61 275.798 1098.53 285.761 1090.83 293.459C1089.47 296.177 1087.21 298.894 1084.49 300.253C1082.68 306.14 1079.51 311.121 1074.98 315.65C1072.27 320.632 1067.29 324.255 1061.4 325.613C1026.98 332.406 994.379 341.011 964.04 351.427C950.002 356.408 935.059 361.843 920.115 367.73C919.21 368.183 918.304 368.636 917.398 368.636L915.587 369.542C911.512 371.353 907.436 373.165 902.455 374.976C896.568 379.052 889.776 382.222 880.719 384.939C877.096 386.298 872.568 388.109 867.134 389.015L865.776 389.468H864.417C863.059 389.468 862.153 389.468 860.795 389.015C858.53 389.468 856.266 389.468 854.002 389.468C841.776 389.468 832.266 383.581 827.285 373.617L825.927 369.994C820.946 366.371 816.87 361.39 814.153 355.955C810.078 347.804 808.719 339.199 810.078 331.048C808.719 320.632 807.813 310.216 806.908 299.8L805.549 285.308L795.587 183.412C789.7 175.261 786.53 164.845 787.436 154.429C788.342 145.824 791.512 138.578 796.04 131.785C794.681 129.068 793.776 126.351 794.229 123.181C794.681 117.746 797.851 112.765 802.379 110.5C805.096 108.689 807.813 107.33 810.53 105.971C810.078 104.613 810.078 102.801 810.078 100.99C810.53 95.5555 813.7 90.5739 818.229 88.3096C850.379 71.1005 884.795 61.1374 917.398 52.5329C921.021 51.1743 924.644 50.2685 927.813 49.8157H928.266L932.795 48.9099C950.455 45.287 968.115 41.664 986.681 40.3054C991.21 39.8525 995.738 39.8525 1000.27 39.8525L1001.17 47.0985L1016.12 43.0226L1022 41.2111L1025.17 42.1169C1028.79 42.5698 1032.42 43.4755 1035.59 44.3812C1038.76 45.287 1041.47 46.1927 1044.19 47.5513L1047.81 49.3628C1050.53 51.6271 1053.25 53.8915 1055.51 56.1558L1058.23 58.8731L1059.59 62.0431C1063.66 74.2706 1065.02 86.0452 1062.76 96.9141L1061.4 105.519L1053.25 108.236L1047.81 109.594C1047.81 112.312 1047.81 115.029 1047.36 117.746C1052.34 120.463 1057.78 124.539 1061.85 131.785C1062.76 133.144 1063.21 134.502 1064.12 136.314C1064.12 136.767 1064.57 137.672 1065.02 138.125C1070.45 142.654 1074.08 148.994 1075.89 156.693C1078.61 170.279 1071.81 185.224 1059.59 192.922C1059.59 193.375 1059.59 193.375 1059.13 193.828C1076.34 196.998 1098.08 211.943 1101.7 265.382ZM825.021 100.537C824.115 101.443 824.115 102.801 825.021 103.254C834.983 98.7256 844.946 94.6498 855.361 91.4797C885.247 81.0637 916.04 74.2706 946.832 67.4776C964.493 63.4018 982.606 58.8731 1000.27 54.3444C996.191 54.3444 992.115 54.3444 988.04 54.7972C968.568 56.1558 950.002 59.7788 931.436 63.4018L921.021 66.119C888.417 74.7235 854.908 84.6866 825.021 100.537ZM1079.06 284.855C1084.49 280.779 1088.12 274.439 1087.66 266.287C1085.85 240.474 1077.25 200.621 1042.38 207.867C1037.4 209.226 1032.87 211.49 1027.89 212.849L1010.23 218.283C999.361 221.906 988.493 225.982 977.625 230.058C970.832 232.322 964.04 235.039 957.247 237.757L918.757 252.701C908.795 256.777 898.832 260.853 888.87 265.382L887.512 266.287C887.512 265.382 887.512 264.929 887.512 264.476L884.795 235.039C897.474 228.699 909.7 222.359 922.832 216.925C944.115 207.867 965.398 201.074 987.134 195.187C998.002 192.47 1009.32 190.205 1020.19 188.394C1030.61 186.129 1040.57 186.582 1050.08 182.054C1058.23 177.978 1063.66 168.015 1061.85 159.41C1060.95 154.881 1058.23 150.353 1054.15 148.088C1053.7 148.088 1053.7 148.088 1053.25 147.635C1052.79 145.824 1051.89 144.013 1050.98 142.201C1050.53 141.295 1050.08 139.937 1049.17 138.578C1042.83 127.709 1031.96 127.256 1020.64 127.709C1015.21 128.162 1010.23 128.615 1004.79 129.521L998.908 130.879C984.417 134.955 969.474 139.031 954.983 142.654C929.172 152.164 904.266 163.033 878.908 173.902C878.908 171.638 876.191 155.334 875.738 150.806L876.644 149.9C890.681 144.013 905.172 138.578 919.662 133.597C924.644 131.332 969.474 117.746 992.568 111.406C993.474 111.406 994.38 110.953 995.285 110.5C1005.7 107.783 1016.12 104.613 1026.08 101.443L1048.72 94.6497C1050.53 85.5924 1049.17 76.0821 1046 66.5718L1038.76 60.6845C1036.49 59.7788 1034.23 58.8731 1031.51 57.9673C1028.79 57.0616 1025.62 56.6087 1022.45 56.1558C998.908 62.496 975.361 68.8362 951.361 74.2706C920.568 80.6108 889.776 87.4038 859.889 97.8198C850.379 100.99 840.417 104.613 830.908 108.689C830.455 110.047 829.549 111.406 829.096 112.312C822.757 117.746 818.681 124.539 817.776 133.597C816.87 141.295 819.587 149.9 825.021 155.787L830.455 207.414L835.889 261.759C837.247 277.609 838.153 293.912 840.87 309.31C836.795 321.085 844.493 334.671 855.813 339.199C855.361 341.464 855.361 343.275 856.266 345.539C859.889 353.238 868.04 353.691 875.285 352.333C877.096 352.333 879.813 351.88 879.813 351.88C879.361 352.333 905.172 344.634 910.606 341.011L911.059 340.558C916.04 338.294 921.021 336.482 926.002 334.218L929.172 332.859C929.172 332.859 929.172 332.859 929.625 332.859C944.568 326.519 959.964 321.085 975.361 315.65C1007.51 304.328 1041.02 295.724 1074.53 289.384C1077.25 288.931 1078.61 287.119 1079.06 284.855ZM969.927 190.205C967.21 191.111 964.946 192.017 962.229 193.375C939.587 202.433 916.04 211.037 893.851 222.359C897.474 219.189 900.191 214.66 901.096 209.679C909.7 207.414 918.304 204.697 927.361 201.98C941.398 197.451 955.436 193.375 969.474 188.847L969.927 190.205ZM869.398 345.539C878.455 343.275 887.059 339.652 895.662 336.482C904.266 333.765 912.417 330.595 920.568 327.425V328.33C913.776 331.953 906.983 335.576 899.738 339.199C896.568 341.011 892.946 342.822 889.323 344.634C888.87 345.087 888.417 345.087 887.964 345.087C886.606 345.539 876.191 346.445 869.398 345.539Z" fill="#FF5200"/>
<path d="M798.39 164.391C801.559 183.864 794.314 196.092 787.069 203.79C785.258 206.961 782.541 210.131 779.824 213.301C777.559 218.282 774.39 222.811 771.22 225.981C759.899 244.096 739.522 253.606 710.088 253.606C705.559 253.606 701.484 253.606 697.408 253.153C699.673 266.286 701.937 279.42 702.842 292.553C704.654 307.95 703.748 320.178 700.125 330.594C696.956 341.01 691.069 350.52 682.465 357.766C679.295 366.371 673.408 374.069 666.163 380.41C662.993 383.127 654.39 389.467 643.975 389.467C637.182 389.467 630.842 386.297 626.314 380.862C625.408 379.957 624.503 379.051 624.05 377.692C620.88 376.787 618.616 374.522 616.805 371.805C612.276 364.559 611.371 356.86 610.465 350.067C610.012 348.709 610.012 347.35 610.012 346.444L598.691 276.25C595.975 260.852 593.71 244.549 591.446 227.793C579.22 223.264 567.446 217.829 556.125 211.489C549.786 208.319 546.616 201.526 548.427 194.733C548.88 193.374 549.333 192.016 550.239 190.657C549.786 189.751 549.333 188.846 549.333 187.487C546.163 177.977 547.522 167.561 552.05 159.409C554.767 154.428 559.295 150.352 564.276 147.635C564.729 144.012 566.088 140.389 567.899 137.219C567.899 137.219 568.352 136.766 568.352 136.313C565.182 125.444 561.559 114.575 557.937 104.612C555.673 97.8189 556.125 90.1204 559.295 83.7802C561.559 79.7044 564.276 76.0813 568.352 73.3642C569.258 69.7411 571.522 66.5711 574.239 63.8538C574.239 63.4009 574.691 62.4953 575.144 61.5895C577.408 57.5136 580.125 53.8908 584.201 51.1735C585.559 46.192 588.729 42.1161 593.258 38.9461C600.956 33.5117 610.012 30.7944 620.427 30.7944C631.295 30.7944 643.522 33.9644 656.654 40.7575C672.503 48.9091 687.446 58.4195 701.031 67.4768C728.654 85.5917 756.729 107.329 783.899 131.784C788.88 136.766 792.503 142.653 792.956 148.993C795.673 154.428 797.484 159.409 798.39 164.391ZM775.748 194.733C782.541 188.393 786.163 179.335 784.352 166.655C783.446 162.126 781.635 157.598 778.918 153.069C779.371 149.446 778.012 145.823 774.39 142.653C748.578 119.557 721.861 98.2718 693.333 79.2515C679.295 70.1941 665.258 61.1366 650.314 53.4378C635.824 46.192 616.352 40.3046 601.408 50.7206C598.691 52.9849 596.427 56.1551 596.88 60.231C590.088 62.4953 584.654 69.7411 587.371 77.44C594.163 96.9132 600.05 116.839 605.484 136.766L602.767 135.407C594.616 132.237 584.201 137.671 580.125 144.465C575.144 153.069 577.408 167.108 587.371 171.637C597.333 176.165 607.295 180.694 617.71 184.77C618.163 187.487 619.069 189.751 619.522 192.469C605.937 187.487 592.352 182.053 579.22 175.713C578.314 175.26 577.861 176.165 578.314 176.618C591.899 183.864 605.937 190.204 619.975 195.639C622.692 214.206 625.408 233.227 628.578 251.795C630.842 267.645 633.559 283.043 635.824 298.44L639.899 321.989C640.805 328.33 640.805 336.481 644.427 341.916C644.88 342.369 644.88 342.369 644.88 341.916C646.692 336.481 644.88 329.688 644.427 323.801C643.069 316.102 642.163 308.403 641.258 300.252C640.352 295.723 639.899 291.194 639.446 286.213C640.805 294.364 642.616 302.063 644.88 309.309C645.333 315.196 646.239 321.084 647.144 326.518C648.05 334.67 648.05 343.274 653.031 349.614C658.465 356.407 667.975 351.426 672.956 347.35C679.295 341.463 684.276 334.217 686.541 326.518C689.71 316.102 689.71 304.78 688.805 293.911C686.541 271.721 682.012 249.077 677.937 226.887C677.031 221.905 675.673 216.471 674.767 211.036C678.842 211.942 682.918 212.395 686.993 213.301C715.069 217.829 759.446 224.17 775.748 194.733ZM721.408 146.276C731.824 152.616 743.597 158.956 749.937 168.467C750.842 169.372 751.295 170.278 751.748 171.184L748.125 172.09C745.408 172.542 742.239 172.995 739.069 172.995C723.673 174.354 708.276 172.542 693.333 169.372C683.371 167.108 673.861 164.391 664.352 161.221C660.729 143.559 656.201 126.35 651.673 109.141C662.088 113.669 672.05 118.651 682.012 123.633C695.144 130.878 708.276 138.577 721.408 146.276ZM697.861 206.961C709.182 208.772 725.031 209.678 740.427 207.866C740.427 208.319 749.937 207.413 749.937 207.866L732.729 210.583C715.069 212.395 696.503 209.678 678.842 206.961C677.031 206.961 675.673 206.508 673.861 206.055C673.408 205.149 673.408 203.79 672.956 202.432C681.559 204.243 689.71 206.055 697.861 206.961ZM675.22 286.666L674.314 277.608C674.767 277.608 673.861 272.174 674.314 271.721L677.031 285.76C680.201 300.705 682.012 316.102 675.673 330.141C674.314 331.5 672.956 332.405 671.144 333.311L670.239 331.953C677.484 318.366 676.578 301.61 675.22 286.666Z" fill="#FF5200"/>
<path d="M591.102 276.25C600.61 297.534 603.328 319.725 591.102 340.104C587.479 345.539 583.855 349.614 579.327 352.785C578.422 356.408 577.063 359.578 575.252 362.295C561.214 384.938 536.308 386.75 523.176 387.655C484.233 390.373 445.29 388.561 406.799 387.655H393.214C379.177 389.014 366.045 390.373 354.271 391.731C352.46 392.184 350.648 392.184 348.837 392.184C333.441 392.184 321.214 384.938 315.781 372.258C311.705 362.748 313.064 352.332 319.856 343.727C320.309 341.916 321.667 339.651 322.573 337.84C321.667 334.217 321.667 330.594 321.667 326.971C322.573 298.44 320.309 269.457 317.592 241.379C309.441 231.868 304.007 221.452 302.196 210.584C299.479 195.186 302.196 182.053 309.441 172.995C307.63 160.315 305.818 146.729 304.46 131.784L302.648 115.934H307.177L308.535 113.217C306.724 109.594 306.724 105.518 307.63 101.895C309.894 94.6489 316.233 90.1203 323.479 90.1203H323.931C322.573 86.9502 322.573 83.3273 323.479 79.7043C325.743 72.4584 332.082 67.9297 339.328 67.9297H342.045C345.214 68.3826 347.931 68.8354 350.648 69.2883C353.365 68.8354 356.535 68.3826 359.252 68.3826C366.045 68.3826 372.384 70.194 378.271 72.9112C395.479 75.1756 410.422 76.0813 424.006 76.0813C428.988 76.0813 433.517 76.0813 438.045 75.6285C453.893 74.7227 468.837 72.9113 482.422 69.7412C511.403 63.401 552.158 35.7759 572.989 72.0055C574.347 75.1756 575.705 77.8928 576.61 81.0629C580.686 96.0075 574.799 115.481 560.308 124.538C557.592 133.596 552.157 142.2 544.006 147.182C543.554 147.635 543.555 148.54 543.102 148.993C540.838 153.069 536.762 156.239 531.781 157.598C514.573 162.579 498.723 167.108 482.874 170.731C484.233 171.184 485.139 171.637 486.497 172.542C490.572 173.901 496.006 176.165 500.988 179.336C514.572 187.94 528.157 197.903 539.931 209.225C556.686 225.528 578.875 249.983 591.102 276.25ZM578.875 332.858C587.932 317.914 584.762 299.799 576.61 282.59C568.912 265.381 556.687 249.53 547.63 238.661C540.838 230.963 533.591 223.264 525.894 216.471C517.29 208.772 508.234 201.526 498.272 195.639C481.97 185.223 463.403 174.354 444.384 168.92C443.025 168.467 434.874 165.749 434.874 170.278C425.818 168.014 416.761 164.844 407.705 162.579C403.176 161.674 398.648 161.221 394.573 160.768C393.214 153.069 392.309 145.37 390.95 137.672C391.856 137.672 392.309 137.672 393.214 138.124C409.063 141.294 425.818 142.653 442.572 141.747C476.988 140.389 510.497 131.331 544.006 121.821C546.723 120.915 547.177 118.651 546.723 116.84C547.177 115.934 548.082 115.481 548.535 114.575C554.422 112.311 561.214 102.348 562.573 96.4604C564.838 88.7617 562.572 80.61 557.139 75.1756C544.459 60.6838 525.441 69.2883 510.951 75.1756C482.875 86.9502 452.082 90.5732 422.195 90.1203C412.233 89.6674 378.724 90.1203 373.743 86.9502C367.856 82.8744 360.158 81.5158 352.913 83.3273C352.46 83.7801 352.007 83.7801 351.554 83.7801C347.931 83.3273 343.856 82.8744 339.781 81.9686C337.516 81.5158 336.158 84.6859 338.422 86.0445C339.781 87.4031 341.139 88.3088 342.497 89.2146C337.516 93.7432 334.799 100.536 334.799 107.782H334.347C336.158 125.444 338.422 140.842 340.686 156.239C339.328 157.145 338.422 158.051 337.516 158.956C330.724 165.749 330.724 177.071 332.082 185.676C333.894 196.092 339.781 205.602 347.479 213.301C350.196 243.643 352.913 274.891 351.554 305.686C351.554 309.762 352.46 314.291 354.724 317.914C351.554 321.084 349.29 324.707 348.384 328.782C343.856 332.858 342.045 338.293 344.762 344.633C348.837 354.143 359.252 356.408 368.762 355.502C381.894 354.143 395.026 352.332 408.61 350.973C413.139 350.973 418.12 351.426 422.648 351.426C442.12 351.879 461.591 351.879 480.611 352.332C499.63 352.332 518.648 352.332 537.667 350.973C553.97 350.067 569.819 347.35 578.875 332.858ZM497.366 264.928C509.591 273.985 521.366 285.307 525.894 300.705C526.346 301.61 526.346 302.516 526.346 303.422C525.893 299.346 484.687 300.705 480.611 300.705C457.064 300.705 433.517 300.705 410.422 304.328C408.61 304.78 406.346 304.78 404.082 305.233V297.082C402.271 273.532 400.912 249.983 400.912 226.434C400.912 224.17 401.818 222.358 402.723 221C402.723 220.094 402.723 219.188 403.176 218.282C403.176 217.377 447.101 234.586 451.176 236.397C467.478 244.549 482.874 254.059 497.366 264.928ZM445.742 286.666H454.346C446.648 281.684 438.044 277.155 429.44 273.532C426.271 272.174 424.006 270.362 421.742 268.098C419.931 267.192 418.12 266.286 416.308 265.834L417.667 288.93C427.176 287.571 436.233 287.118 445.742 286.666Z" fill="#FF5200"/>
</svg>
