<svg width="130" height="130" viewBox="0 0 130 130" fill="none" xmlns="http://www.w3.org/2000/svg">
<path d="M118.01 110.689C112.041 114.033 103.206 113.555 98.67 108.062C96.2824 105.435 94.6111 103.286 93.4173 99.7032C92.9397 98.2702 92.701 98.0314 93.1785 99.2255L88.8808 92.5383C86.2544 88.717 83.3893 85.1345 80.5241 81.3132C78.8528 78.9249 77.1815 76.5366 75.2714 74.1483C73.6 74.626 71.9287 75.3425 70.2574 75.8201C65.7209 77.492 61.1844 78.925 56.4092 80.1191C52.1114 96.8372 46.3812 113.317 38.9795 128.841C37.7857 131.229 33.9655 129.557 34.9206 127.169L35.6369 124.303C34.9206 125.497 33.7268 126.213 32.2942 125.975C27.519 125.019 34.4431 106.152 35.1593 103.286C36.8307 96.8372 38.502 90.15 39.9346 83.4627C38.9795 83.4627 38.2633 83.7016 37.3082 83.7016C32.2942 84.418 27.2802 84.6569 22.2662 84.8957C16.2972 84.8957 10.0893 85.3734 4.83659 82.0297C-1.84875 77.7308 -1.37122 68.8941 4.83659 64.5951C9.85059 61.2515 15.1033 61.7292 20.3561 60.7738C25.3701 59.8185 30.1453 58.6244 35.1593 57.4302C38.502 56.4749 41.8447 55.7584 44.9486 54.5642C45.6649 50.5041 46.1424 46.2052 46.6199 41.9062C47.3362 35.219 48.53 28.5317 48.2913 21.6056C47.575 18.0232 47.0974 14.4407 47.3362 10.8583H47.575C47.575 6.08167 50.2014 1.78272 55.2154 0.349741C59.5131 -0.84441 65.4821 1.06622 67.3922 5.36517C71.2124 13.2466 72.645 21.128 76.4652 28.2929C78.1365 31.3977 79.8078 34.5025 81.7179 37.3684L85.7769 34.7413L86.0156 34.5025C86.2544 34.2637 86.4932 34.2637 86.7319 33.786C87.9257 32.8307 88.8808 32.1142 89.8358 31.1589L94.8498 26.3823C95.3274 25.9046 95.5661 25.6658 95.8049 25.4269C97.4762 22.7998 99.3863 20.8891 102.013 19.2173C106.788 16.5902 112.518 16.3514 117.771 17.5455C125.411 19.2173 129.232 26.1434 129.948 33.3083C131.142 49.0711 111.563 55.9972 100.103 62.4456L103.923 66.9834C106.788 70.5659 109.892 74.3872 113.235 77.7308C116.816 81.5521 119.92 83.2239 123.74 88.717C128.754 95.8819 125.173 106.39 118.01 110.689Z" fill="#FF5200"/>
</svg>
