<svg width="371" height="46" viewBox="0 0 371 46" fill="none" xmlns="http://www.w3.org/2000/svg">
<path d="M370.204 14.4959C371.692 19.3919 368.908 25.2479 366.316 28.5599C362.332 33.8879 356.524 41.8559 348.892 41.2799C346.876 41.1359 344.62 39.7919 344.236 37.5359C343.996 36.0959 344.284 34.8479 344.572 33.6479C344.86 32.3519 344.86 30.7679 345.052 29.4239C345.196 28.6079 345.964 26.4479 345.676 25.6799C345.1 24.2879 345.34 22.6559 346.396 21.3599C346.828 20.7839 346.828 19.0079 346.972 18.3359L347.692 14.8319C348.076 13.0559 348.028 10.4159 349.372 9.07192C349.612 8.83192 349.852 8.63992 350.14 8.54392C350.284 7.91992 350.524 7.24792 351.052 6.71992C351.628 6.19192 352.252 5.90392 352.876 5.90392C353.02 5.90392 353.164 5.90392 353.26 5.95192C353.596 5.66392 354.076 5.47192 354.508 5.47192C355.42 5.47192 356.188 6.04792 356.428 6.91192C357.004 8.78392 357.004 10.7999 356.956 12.6719L357.82 12.3839C358.972 12.0959 360.316 11.6639 361.468 11.4719C366.652 10.6559 369.196 10.9439 370.204 14.4959ZM366.652 25.3919C368.14 23.1839 369.58 17.6159 368.764 14.9279C367.468 10.4159 362.092 12.8159 358.204 13.8719C357.244 14.1119 356.236 14.4959 355.324 14.9759C355.324 14.7359 355.324 14.4479 355.372 14.2079C355.468 11.9519 355.612 9.50392 354.988 7.34392C354.844 6.86392 354.22 6.91192 354.028 7.34392C353.788 8.06392 353.596 8.78392 353.5 9.55192C353.02 10.6079 352.636 11.7119 352.3 12.8159C352.396 12.1439 352.444 11.4719 352.54 10.7519C352.54 10.4639 352.588 7.77592 353.164 7.87192C353.356 7.87192 353.452 7.67992 353.26 7.53592C352.876 7.24792 352.444 7.48792 352.108 7.82392C351.532 8.39992 351.532 9.50392 351.34 10.3199L350.044 16.8479C349.852 17.8079 349.66 18.7199 349.516 19.6319C349.468 19.7279 349.42 19.7759 349.372 19.8239C348.556 20.7839 348.268 21.9839 348.892 23.1359L347.74 30.3839C347.644 30.7199 347.692 31.0079 347.788 31.2479V31.3439C347.5 32.5439 347.212 33.6959 347.404 34.9439C347.644 36.4799 349.276 37.3439 350.668 37.4399C352.876 37.5839 355.228 36.5279 357.004 35.3759C358.924 34.1759 360.652 32.5919 362.188 30.9599C363.868 29.2319 365.308 27.3599 366.652 25.3919ZM363.148 19.9199C363.292 20.1599 363.292 20.5439 363.052 21.1199C361.564 24.8159 358.204 28.5599 355.084 31.0079C354.7 31.2959 352.924 32.1119 352.828 32.4479C353.74 29.1839 354.46 25.9199 355.084 22.5599C355.132 22.5599 355.18 22.5119 355.228 22.5119C356.524 21.7439 361.9 17.8079 363.148 19.9199ZM358.252 25.5359C358.684 24.8639 359.068 24.2399 359.404 23.6159C359.308 23.6159 359.26 23.6639 359.164 23.6639L359.068 23.7119C358.684 23.8079 358.348 23.9519 358.012 24.0479C357.916 24.0959 357.82 24.1439 357.772 24.1439C357.58 24.2399 357.34 24.3359 357.148 24.4799C356.812 24.6239 356.476 24.8159 356.14 25.0559C355.9 26.3519 355.612 27.5519 355.372 28.7039L355.9 28.1759C356.716 27.3599 357.388 26.5919 357.964 25.8239L358.108 25.6799L358.252 25.5359Z" fill="#FF5200"/>
<path d="M344.831 33.6479C344.879 33.9839 344.879 34.3679 344.879 34.6559C345.119 35.6639 344.975 36.7199 344.399 37.5359C344.111 37.9679 343.679 38.3039 343.247 38.5439C343.151 39.0239 343.007 39.4559 342.719 39.8879C339.743 44.2079 334.991 38.9759 334.127 35.8559C333.407 33.2159 332.831 30.5279 332.351 27.9839L332.207 27.3599C331.871 29.5199 331.679 31.7279 331.583 33.9839C331.535 35.3279 332.063 38.0639 331.007 39.1679C330.719 39.4559 330.287 39.6479 329.855 39.7439V40.0799C329.903 40.6079 329.711 41.1359 329.327 41.5199C328.991 41.9039 328.463 42.0959 327.935 42.0959C327.503 42.0959 327.167 41.9999 326.879 41.8079C326.543 41.8559 326.255 41.8559 325.919 41.8559C324.767 41.8559 322.367 41.6159 321.503 40.7519C319.871 39.1679 319.679 36.1439 319.679 33.9839C319.727 31.7759 320.015 29.4719 320.399 27.3119C321.839 19.5359 325.631 11.9519 331.151 6.2879C331.487 5.9519 331.919 5.7599 332.351 5.6159C333.695 5.3279 334.655 4.1759 336.239 4.1759C337.871 4.1759 339.311 5.2319 339.887 6.8639C339.983 7.1999 340.079 7.5359 340.223 7.9199C341.039 8.4959 341.519 9.4559 341.471 10.5599C341.327 14.2079 342.143 17.9039 342.767 21.5039C343.439 25.1999 344.447 28.8479 345.023 32.5439C345.071 32.9279 344.975 33.3119 344.831 33.6479ZM343.295 33.6959C343.151 33.1199 342.959 32.5439 342.767 32.0159L343.199 32.9279C343.295 33.0719 343.535 32.9759 343.487 32.7839C343.247 30.9599 342.719 29.1359 342.335 27.3119C341.567 23.6159 340.895 20.0159 340.415 16.2719C340.367 15.6479 340.271 14.9759 340.175 14.3519C340.175 14.0639 340.175 13.8239 340.127 13.5359C339.935 12.8159 339.935 11.2319 339.983 10.4639C339.983 9.6479 339.551 9.1679 338.927 8.9279C338.783 8.3999 338.639 7.8719 338.447 7.3439C338.159 6.5759 337.583 5.9519 336.767 5.7599C335.951 5.5199 334.127 6.0479 332.255 7.4399C330.671 8.6399 329.567 10.4639 328.559 12.1919C325.919 16.7999 323.999 21.9839 323.231 27.2639C322.991 28.7039 322.895 30.1919 322.847 31.7279C322.847 32.6879 322.895 33.7439 323.135 34.7039C323.375 35.6159 323.567 36.6719 324.239 37.2959C324.575 37.6319 325.103 37.6799 325.439 37.3919C326.351 37.9679 328.511 38.3039 328.511 37.9199C328.463 30.7199 328.799 23.0399 333.359 13.9679C333.311 14.0639 333.455 14.3999 333.503 14.4959C330.143 21.6959 328.751 29.9039 329.087 37.7759C329.135 38.3999 330.047 38.3999 330.047 37.7759C329.903 33.3599 330.335 28.8959 331.151 24.5279C331.775 21.5039 332.687 18.5279 333.743 15.6479C333.887 16.3679 335.135 23.5679 335.519 25.3439C335.999 27.9359 336.575 30.5279 337.247 33.1199C337.823 35.1359 339.071 37.2959 341.423 37.4399C342.959 37.5839 343.823 36.1439 343.343 34.7999C343.391 34.4639 343.343 34.0799 343.295 33.6959Z" fill="#FF5200"/>
<path d="M321.295 28.128C321.391 29.232 320.959 30.288 320.143 31.104C319.999 31.392 319.759 31.68 319.471 31.824C319.279 32.448 318.943 32.976 318.463 33.456C318.175 33.984 317.647 34.368 317.023 34.512C313.375 35.232 309.919 36.144 306.703 37.248C305.215 37.776 303.631 38.352 302.047 38.976C301.951 39.024 301.855 39.072 301.759 39.072L301.567 39.168C301.135 39.36 300.702 39.552 300.174 39.744C299.55 40.176 298.831 40.512 297.871 40.8C297.487 40.944 297.007 41.136 296.431 41.232L296.286 41.28H296.143C295.999 41.28 295.903 41.28 295.759 41.232C295.519 41.28 295.279 41.28 295.039 41.28C293.743 41.28 292.735 40.656 292.207 39.6L292.062 39.216C291.534 38.832 291.103 38.304 290.815 37.728C290.383 36.864 290.239 35.952 290.383 35.088C290.239 33.984 290.143 32.88 290.047 31.776L289.903 30.24L288.847 19.44C288.223 18.576 287.887 17.472 287.983 16.368C288.079 15.456 288.414 14.688 288.894 13.968C288.75 13.68 288.655 13.392 288.703 13.056C288.751 12.48 289.087 11.952 289.567 11.712C289.855 11.52 290.143 11.376 290.431 11.232C290.383 11.088 290.383 10.896 290.383 10.704C290.431 10.128 290.767 9.6 291.247 9.36C294.655 7.536 298.303 6.48 301.759 5.568C302.143 5.424 302.527 5.328 302.863 5.28H302.911L303.391 5.184C305.263 4.8 307.135 4.416 309.103 4.272C309.583 4.224 310.063 4.224 310.543 4.224L310.639 4.992L312.223 4.56L312.847 4.368L313.183 4.464C313.567 4.512 313.951 4.608 314.287 4.704C314.623 4.8 314.911 4.896 315.199 5.04L315.583 5.232C315.871 5.472 316.159 5.712 316.399 5.952L316.687 6.24L316.831 6.576C317.263 7.872 317.407 9.12 317.167 10.272L317.023 11.184L316.159 11.472L315.583 11.616C315.583 11.904 315.583 12.192 315.535 12.48C316.063 12.768 316.639 13.2 317.071 13.968C317.167 14.112 317.215 14.256 317.311 14.448C317.311 14.496 317.359 14.592 317.407 14.64C317.983 15.12 318.366 15.792 318.559 16.608C318.846 18.048 318.127 19.632 316.831 20.448C316.831 20.496 316.83 20.496 316.782 20.544C318.606 20.88 320.911 22.464 321.295 28.128ZM291.967 10.656C291.871 10.752 291.871 10.896 291.967 10.944C293.023 10.464 294.079 10.032 295.183 9.696C298.351 8.592 301.615 7.872 304.879 7.152C306.751 6.72 308.671 6.24 310.543 5.76C310.111 5.76 309.679 5.76 309.247 5.808C307.183 5.952 305.215 6.336 303.247 6.72L302.143 7.008C298.687 7.92 295.135 8.976 291.967 10.656ZM318.894 30.192C319.47 29.76 319.855 29.088 319.807 28.224C319.615 25.488 318.702 21.264 315.006 22.032C314.478 22.176 313.999 22.416 313.471 22.56L311.599 23.136C310.447 23.52 309.295 23.952 308.143 24.384C307.423 24.624 306.703 24.912 305.983 25.2L301.903 26.784C300.847 27.216 299.791 27.648 298.735 28.128L298.591 28.224C298.591 28.128 298.591 28.08 298.591 28.032L298.303 24.912C299.647 24.24 300.943 23.568 302.335 22.992C304.591 22.032 306.847 21.312 309.151 20.688C310.303 20.4 311.503 20.16 312.655 19.968C313.759 19.728 314.815 19.776 315.823 19.296C316.687 18.864 317.263 17.808 317.071 16.896C316.975 16.416 316.687 15.936 316.255 15.696C316.207 15.696 316.207 15.696 316.159 15.648C316.111 15.456 316.015 15.264 315.919 15.072C315.871 14.976 315.823 14.832 315.726 14.688C315.054 13.536 313.903 13.488 312.703 13.536C312.127 13.584 311.599 13.632 311.023 13.728L310.399 13.872C308.863 14.304 307.279 14.736 305.743 15.12C303.007 16.128 300.367 17.28 297.679 18.432C297.679 18.192 297.39 16.464 297.342 15.984L297.439 15.888C298.927 15.264 300.463 14.688 301.999 14.16C302.527 13.92 307.278 12.48 309.726 11.808C309.822 11.808 309.919 11.76 310.015 11.712C311.119 11.424 312.223 11.088 313.279 10.752L315.679 10.032C315.871 9.072 315.726 8.064 315.391 7.056L314.623 6.432C314.383 6.336 314.143 6.24 313.855 6.144C313.567 6.048 313.23 6 312.894 5.952C310.398 6.624 307.903 7.296 305.359 7.872C302.095 8.544 298.831 9.264 295.663 10.368C294.655 10.704 293.599 11.088 292.591 11.52C292.543 11.664 292.447 11.808 292.399 11.904C291.727 12.48 291.295 13.2 291.199 14.16C291.103 14.976 291.391 15.888 291.967 16.512L292.543 21.984L293.118 27.744C293.262 29.424 293.359 31.152 293.647 32.784C293.215 34.032 294.03 35.472 295.23 35.952C295.182 36.192 295.183 36.384 295.279 36.624C295.663 37.44 296.527 37.488 297.295 37.344C297.487 37.344 297.775 37.296 297.775 37.296C297.727 37.344 300.463 36.528 301.039 36.144L301.087 36.096C301.615 35.856 302.142 35.664 302.67 35.424L303.006 35.28C303.006 35.28 303.007 35.28 303.055 35.28C304.639 34.608 306.271 34.032 307.903 33.456C311.311 32.256 314.863 31.344 318.415 30.672C318.703 30.624 318.846 30.432 318.894 30.192ZM307.327 20.16C307.039 20.256 306.799 20.352 306.511 20.496C304.111 21.456 301.615 22.368 299.263 23.568C299.647 23.232 299.935 22.752 300.031 22.224C300.943 21.984 301.855 21.696 302.815 21.408C304.303 20.928 305.791 20.496 307.279 20.016L307.327 20.16ZM296.67 36.624C297.63 36.384 298.543 36 299.455 35.664C300.367 35.376 301.231 35.04 302.095 34.704V34.8C301.375 35.184 300.655 35.568 299.887 35.952C299.551 36.144 299.166 36.336 298.782 36.528C298.734 36.576 298.687 36.576 298.639 36.576C298.495 36.624 297.39 36.72 296.67 36.624Z" fill="#FF5200"/>
<path d="M291.492 5.95198C291.828 6.52798 292.02 7.19998 291.972 7.87197C291.924 8.78398 291.492 9.59998 290.868 10.128C290.82 10.896 290.532 12.288 289.236 13.152C289.188 13.2 289.14 13.248 289.044 13.296C288.852 14.016 288.468 14.88 287.556 15.504C287.316 15.696 287.028 15.84 286.644 15.936C286.452 16.08 286.164 16.176 285.924 16.224C284.532 16.512 283.044 16.752 281.508 17.04V19.968C281.508 20.832 281.508 21.696 281.508 22.56C281.508 24.576 281.556 26.688 281.508 28.752C281.604 30.096 281.652 31.92 281.748 33.744V33.84L281.7 33.936C281.652 34.848 281.46 36.768 280.02 37.92L279.684 38.16C279.444 38.928 279.06 39.696 278.34 40.272L276.132 41.088C275.748 41.184 275.316 41.28 274.932 41.28C274.548 41.28 274.212 41.232 273.924 41.136C270.564 40.128 270.372 36.336 270.276 35.088C270.132 32.304 270.228 29.616 270.324 27.552L270.468 24.24C270.564 22.896 270.612 21.504 270.708 20.112L270.756 18.048H270.42C269.124 18 267.78 18 266.388 17.856C265.284 17.712 263.94 17.52 262.836 16.8C262.02 16.32 261.348 15.552 260.916 14.688C259.62 13.728 258.996 12.048 259.428 10.464C259.668 9.50398 260.292 8.68798 261.108 8.15998V8.11198C261.444 6.86398 262.404 5.85598 263.508 5.42397C263.748 4.79998 264.372 4.36798 265.044 4.36798H265.14C267.684 4.51198 270.276 4.60798 272.868 4.60798C276.756 4.60798 280.836 4.41598 284.964 4.07998C285.54 3.98398 286.116 3.88797 286.596 3.88797H286.692C286.884 3.83998 287.076 3.83998 287.364 3.83998H287.412C288.18 3.74398 288.804 3.69598 289.428 3.64797C289.476 3.59998 289.572 3.59998 289.668 3.59998C290.628 3.59998 291.444 4.36798 291.54 5.37598C291.54 5.56798 291.54 5.75998 291.492 5.95198ZM289.572 9.16798C290.724 8.68798 290.772 6.86398 289.668 6.23998C289.572 6.14398 289.476 6.09597 289.38 6.04798C289.476 5.99998 289.62 5.99998 289.716 5.99998C290.196 5.90398 290.052 5.08798 289.62 5.13598C288.9 5.23198 288.18 5.27998 287.46 5.37598C287.172 5.32798 286.884 5.37598 286.644 5.37598C286.164 5.42397 285.684 5.47198 285.156 5.56798C278.484 6.14398 271.764 6.28798 265.044 5.90398C264.9 5.85598 264.852 6.14398 264.996 6.14398C267.588 6.57598 270.18 6.86398 272.772 7.00798C272.772 7.05598 272.724 7.10398 272.724 7.15198C270.084 7.15198 267.492 6.95998 264.852 6.71998C263.796 6.62398 262.836 7.53598 262.548 8.49598C262.26 9.64797 262.836 10.8 263.796 11.328C264.084 12.096 264.708 12.768 265.332 13.2C266.196 13.728 267.252 13.872 268.26 14.016C269.508 14.112 270.804 14.16 272.1 14.16H273.972C273.972 14.64 273.972 15.168 273.972 15.696L273.876 17.808C273.78 20.304 273.636 22.8 273.492 25.248C273.396 27.696 273.348 30.192 273.492 32.64C273.588 34.512 274.02 36.72 276.036 37.344C277.044 37.632 278.244 37.056 278.58 36C278.916 35.04 278.964 33.696 279.156 32.832V34.656C279.108 35.328 279.108 36 279.06 36.672V36.768C279.924 36.096 280.116 34.944 280.212 33.792C280.164 32.112 280.068 30.432 280.02 28.752C280.02 25.824 279.972 22.896 279.972 19.968C279.972 17.856 280.02 15.744 280.02 13.632C282.468 13.296 284.868 12.864 287.316 12.384C287.46 12.384 287.556 12.288 287.652 12.192C287.892 12.144 288.18 12.048 288.372 11.904C289.14 11.376 289.332 10.512 289.38 9.64797C289.476 9.50398 289.524 9.35998 289.572 9.16798ZM268.26 12.864C267.108 12.816 265.86 12.48 265.092 11.76C266.964 12.336 268.884 12.672 270.804 12.864C269.94 12.912 269.076 12.912 268.26 12.864Z" fill="#FF5200"/>
<path d="M259.583 8.54399C259.679 10.608 259.631 12.672 259.583 14.688V14.976C259.535 15.84 259.535 16.752 259.487 17.664C259.439 20.016 259.343 22.416 259.295 24.816C259.103 29.568 258.959 33.408 258.767 36.912L258.719 37.392L258.431 37.776C258.095 38.256 257.615 38.64 257.087 38.928V39.264L257.039 39.744L256.751 40.128C256.223 40.848 255.503 41.328 254.639 41.568C254.255 41.712 253.871 41.76 253.439 41.76C252.335 41.76 251.327 41.28 250.607 40.464C249.551 40.128 248.831 39.216 248.591 37.968C248.399 37.056 248.447 36.096 248.495 35.28C248.543 34.992 248.543 34.752 248.543 34.512L248.687 30.96C248.687 30.24 248.735 29.52 248.735 28.752V27.216C248.735 27.216 248.735 26.064 248.735 25.248L248.255 26.112C248.255 26.112 244.415 32.928 244.271 33.216C244.175 33.648 244.079 34.08 244.031 34.56L243.983 34.656C243.743 35.904 243.407 37.68 241.919 38.64C241.535 39.696 240.959 40.752 239.663 41.328C239.375 41.424 238.991 41.568 238.511 41.568C238.223 41.568 237.983 41.52 237.695 41.424C236.543 41.328 235.439 40.656 234.623 39.504L234.335 39.072L234.383 38.544C234.719 33.6 235.199 27.12 236.255 20.688C236.591 18.432 236.975 15.984 237.551 13.536L238.559 8.16C238.751 7.248 239.519 6.576 240.431 6.528L240.479 6.384L240.863 6.048L241.295 5.76C241.967 5.328 242.783 5.088 243.551 5.088C244.655 5.088 245.663 5.568 246.191 6.48C246.575 6.76799 246.911 7.152 247.151 7.632C247.919 8.976 247.535 10.224 247.295 11.136L247.151 11.52C246.959 12.24 246.815 12.912 246.671 13.584C247.343 12.528 248.015 11.52 248.735 10.608C248.783 10.56 248.831 10.464 248.975 10.32C249.455 9.6 249.887 8.928 250.415 8.256C250.799 7.728 253.055 4.896 255.503 4.896C256.463 4.896 257.375 5.376 257.999 6.192C258.191 6.48 258.335 6.76799 258.479 7.104C258.623 7.2 258.815 7.296 259.007 7.44L259.535 7.87199L259.583 8.54399ZM258.047 14.928C258.095 12.816 258.191 10.704 258.047 8.64C257.855 8.448 257.567 8.304 257.279 8.208H257.135C257.135 7.824 257.039 7.44 256.751 7.104C255.263 5.136 252.527 7.968 251.615 9.168C249.983 11.328 248.639 13.632 247.343 15.984C246.719 17.136 243.503 23.04 243.407 23.712C243.503 22.896 243.599 22.08 243.743 21.264L244.607 16.32C244.943 14.592 245.231 12.864 245.711 11.136C245.951 10.224 246.383 9.312 245.855 8.352C245.663 8.016 245.375 7.68 245.039 7.488C245.039 7.44 244.991 7.44 244.991 7.392C244.415 6.336 242.975 6.432 242.159 7.008C242.063 7.056 241.919 7.152 241.823 7.248C241.631 8.16 241.343 9.072 241.103 9.984C240.335 12.768 239.855 15.696 239.423 18.576C238.463 24.432 237.935 30.384 237.551 36.288C238.079 37.008 238.847 37.584 239.759 37.584C240.047 37.776 240.431 37.728 240.719 37.584C242.015 37.008 242.303 35.52 242.543 34.272C242.639 33.696 242.735 33.168 242.879 32.64C243.167 32.064 243.503 31.488 243.839 30.912C245.759 27.456 250.559 18.624 251.183 17.712C251.471 17.376 251.711 16.992 251.951 16.656C251.903 20.16 251.999 23.664 251.903 27.216L251.759 32.208C251.711 33.216 251.519 34.32 251.759 35.28C251.903 35.952 252.191 36.576 252.911 36.72C253.007 36.768 253.055 36.768 253.151 36.768C253.727 37.728 254.831 38.112 255.887 37.776C256.463 37.632 256.895 37.296 257.231 36.864C257.471 32.832 257.615 28.8 257.759 24.768C257.903 21.504 257.951 18.192 258.047 14.928ZM236.783 36.048C236.927 33.792 237.119 31.488 237.359 29.184C237.743 25.104 238.271 21.072 238.895 17.04C239.231 15.024 239.615 13.008 239.999 11.04C240.143 10.368 240.623 9.072 240.335 8.4C240.191 8.112 239.471 8.016 239.375 8.448C237.695 16.752 236.639 25.296 236.639 33.792L236.495 34.992C236.543 35.424 236.639 35.76 236.687 35.904C236.735 36 236.783 36.144 236.783 36.048ZM252.959 29.616V29.76C252.959 30.816 253.007 31.92 253.007 33.024V33.216C252.863 34.176 252.575 35.136 252.815 36.096C252.527 35.616 252.383 34.896 252.431 34.464C252.479 33.504 252.527 32.592 252.623 31.632L252.767 29.568C252.815 29.568 252.863 29.616 252.959 29.616Z" fill="#FF5200"/>
<path d="M233.26 29.7599C234.604 30.8639 235.276 32.6399 235.132 34.4639C234.988 36.4799 235.276 38.8799 234.412 40.7519C234.124 41.3759 233.644 41.8559 233.02 42.1919C232.972 42.4799 232.876 42.7679 232.732 43.1039C232.204 44.2559 230.956 44.9759 229.564 44.9759C228.796 44.9759 228.028 44.7359 227.404 44.3519C226.156 43.4879 225.58 42.3839 225.196 41.3759C224.86 40.4639 224.668 39.5039 224.572 38.5919C222.892 38.4479 221.26 38.3039 219.724 38.2079C218.332 38.1119 216.988 38.0639 215.74 37.9679C215.692 39.0239 215.452 40.1279 214.828 41.0879C214.54 41.4719 214.204 41.8079 213.772 42.0479C213.628 42.5279 213.436 43.0079 213.148 43.4399C212.572 44.2559 211.66 44.7839 210.652 44.9279C210.412 45.0239 210.076 45.0719 209.74 45.0719H209.692C209.5 45.1199 209.308 45.1199 209.116 45.1199C208.204 45.1199 206.908 44.7359 205.852 42.9599C204.268 40.1279 201.388 35.3759 203.452 32.2079C203.788 31.7279 204.172 31.2959 204.652 30.9599C204.748 30.5759 204.892 30.1919 205.132 29.8559C205.612 29.1359 206.236 28.5599 206.956 28.1759C207.58 27.7439 208.348 27.4079 209.068 27.3119C209.26 26.3039 209.404 25.3919 209.596 24.5759C210.076 22.6559 210.7 20.7359 211.42 18.9119C213.148 14.4479 215.836 7.87191 221.308 7.10391C221.596 7.05591 221.884 7.05591 222.172 7.05591C224.188 7.05591 225.772 8.01591 226.492 9.64791C226.588 9.79191 226.636 9.98391 226.684 10.1279C229.036 11.1839 229.612 14.0159 229.804 16.3199C229.996 18.3359 230.188 20.1119 230.428 21.7919C230.812 24.1919 231.148 26.0159 231.484 27.6959L231.772 28.8959C232.3 29.0879 232.828 29.3759 233.26 29.7599ZM233.596 34.3679C233.74 32.9759 233.452 31.9679 232.348 30.9599C232.156 30.8159 232.012 30.6719 231.772 30.5759C231.34 30.3359 230.908 30.1919 230.476 30.0479C230.332 29.3759 230.14 28.7039 229.996 28.0319C229.612 26.0159 229.276 24.0479 228.94 22.0319C228.652 20.1599 228.46 18.3359 228.316 16.4639C228.172 14.5919 228.028 12.8159 226.348 11.6639C226.06 11.4719 225.772 11.3759 225.436 11.3759C225.388 10.9919 225.292 10.6079 225.148 10.2239C224.476 8.83191 222.94 8.39991 221.548 8.59191C219.628 8.87991 218.188 10.6559 217.132 12.0959C215.836 13.8719 214.876 15.8399 214.156 17.9039C213.724 19.0559 213.388 20.2559 213.052 21.4559C212.716 22.7519 212.428 24.0479 212.236 25.3439C212.044 26.3519 212.044 27.3119 212.14 28.3199H212.092C211.276 28.3199 210.364 28.4159 209.644 28.7519C208.972 28.7999 208.3 29.0399 207.772 29.4719C207.244 29.7119 206.764 30.1439 206.428 30.6719C205.612 31.9199 206.044 33.4559 206.524 34.7039C207.148 36.4799 207.916 38.2079 208.876 39.8399C209.404 40.7519 210.172 41.4719 211.276 41.1839C211.516 41.2319 211.804 41.1839 211.996 41.0879C212.62 41.0399 213.244 40.7039 213.58 40.2239C214.492 38.8799 214.252 36.8159 214.012 35.3279L213.724 33.9839C214.492 34.0319 215.26 34.0319 216.028 34.0799C217.852 34.1279 219.676 34.2239 221.5 34.3679C223.372 34.4639 225.292 34.4159 227.164 34.8959L227.596 35.0399C227.74 36.1919 227.884 37.4399 228.316 38.4479C228.652 39.4079 229.084 40.1759 229.948 40.7039C230.86 41.3279 232.492 41.2319 233.02 40.0799C233.74 38.5919 233.356 36.5759 233.548 34.9439C233.596 34.7519 233.596 34.5599 233.596 34.3679ZM222.892 21.5039C223.276 23.1839 223.612 24.8639 224.044 26.5439C224.284 27.4079 224.476 28.3199 224.764 29.1839V29.2799C224.332 29.2319 223.9 29.1839 223.42 29.1839C222.508 29.0399 221.596 28.9439 220.684 28.8479L219.532 28.7039C219.58 26.7839 219.676 24.8639 219.964 22.9439C220.156 21.2639 220.492 19.5839 220.924 17.9519C221.116 17.1359 221.356 16.3679 221.596 15.5999C221.644 15.8879 221.74 16.1759 221.788 16.4639L222.892 21.5039ZM220.252 17.7599L220.204 17.9519C220.204 17.9519 220.204 17.9519 220.204 17.9999C220.204 17.9039 220.252 17.8559 220.252 17.7599ZM217.66 28.5119C217.756 28.0799 218.476 21.1199 220.204 17.9999C219.724 19.5359 219.34 21.1199 219.052 22.6559C218.668 24.6239 218.38 26.5919 218.284 28.5599C218.092 28.5119 217.852 28.5119 217.66 28.5119ZM227.116 29.5199C227.116 29.1839 226.828 25.1039 226.732 24.1919L227.932 29.6639C227.74 29.6159 227.548 29.6159 227.404 29.5679L227.116 29.5199Z" fill="#FF5200"/>
<path d="M206.036 16.656C206.564 20.064 206.708 23.088 206.42 25.968C206.132 28.944 205.604 32.016 203.876 34.512C203.54 34.992 203.204 35.424 202.82 35.808C202.628 36.192 202.436 36.528 202.196 36.864C201.572 37.776 200.9 38.496 200.18 39.12C198.98 40.272 197.54 40.992 196.004 41.184C195.716 41.232 195.38 41.28 195.044 41.28C194.804 41.28 194.516 41.232 194.276 41.232C193.988 41.28 193.7 41.28 193.364 41.28C191.732 41.28 189.956 40.608 188.612 39.504C186.404 37.632 185.012 34.848 184.388 30.96C183.332 24.192 184.484 17.472 187.7 12.096C188.276 10.704 188.996 9.45599 189.812 8.39999C189.908 8.20799 190.052 8.11199 190.196 8.01599C190.58 7.29599 191.012 6.62399 191.492 6.04799C191.78 5.61599 192.26 5.42399 192.74 5.42399C192.98 5.42399 193.22 5.47199 193.46 5.56799C193.892 5.27999 194.324 5.08799 194.804 4.99199C195.572 4.70399 196.34 4.51199 197.012 4.51199C197.348 4.46399 197.684 4.46399 197.972 4.46399C198.74 4.46399 199.412 4.60799 199.988 4.94399C200.612 5.32799 201.092 5.90399 201.524 6.52799C202.196 6.67199 202.772 7.10399 203.108 7.72799C203.78 9.02399 204.5 10.512 205.028 12.048C205.412 13.344 205.748 14.832 206.036 16.656ZM204.884 25.824C205.22 22.8 205.028 19.824 204.548 16.848C204.308 15.408 204.02 13.92 203.588 12.48C203.108 11.088 202.436 9.74399 201.764 8.44799C201.524 8.01599 201.044 7.91999 200.66 8.06399C200.324 7.43999 199.844 6.62399 199.22 6.23999C198.644 5.90399 197.828 5.90399 197.156 6.04799C196.532 5.99999 195.908 6.19199 195.284 6.43199C193.748 6.76799 192.596 8.25599 191.78 10.032C191.684 10.032 191.54 9.98399 191.396 10.032C191.588 9.50399 191.78 8.97599 192.02 8.44799C192.212 7.96799 192.5 7.48799 192.788 7.00799C192.836 6.91199 192.74 6.86399 192.692 6.95999C191.876 8.01599 191.252 9.16799 190.772 10.416C190.724 10.464 190.724 10.512 190.676 10.512C187.46 15.888 186.596 22.224 187.556 28.368C188.036 31.2 188.996 34.08 191.252 36C192.548 37.056 194.324 37.632 195.908 37.344C196.436 37.392 196.964 37.392 197.492 37.344C198.836 37.152 199.94 36.528 200.852 35.616C201.524 35.04 202.1 34.368 202.628 33.648C204.212 31.392 204.644 28.464 204.884 25.824ZM198.548 14.496C198.692 15.168 198.788 15.888 198.932 16.608C199.316 18.96 199.46 21.408 199.652 23.808C199.652 26.16 199.364 28.56 198.548 30.816C198.404 31.392 198.164 31.92 197.876 32.448C197.588 32.976 197.156 33.408 196.58 33.6C194.516 34.224 192.836 32.256 192.068 30.672C192.548 30.96 193.172 31.104 193.748 30.96C193.94 30.912 194.132 30.816 194.276 30.72C193.556 27.6 193.172 24.336 193.316 21.072C193.412 19.968 193.508 18.864 193.7 17.76C193.748 17.712 193.748 17.664 193.796 17.568C194.18 15.6 194.804 13.632 195.716 11.856C195.908 11.52 196.1 11.136 196.388 10.944C193.652 16.704 193.556 23.76 194.9 30C195.14 29.568 195.188 29.088 195.092 28.56C194.516 25.008 194.468 21.312 194.9 17.76C195.14 15.936 195.572 14.16 196.1 12.432C196.244 11.952 196.436 11.328 196.724 10.8H196.964C197.012 10.8 197.108 10.848 197.156 10.896C197.348 11.232 197.492 11.616 197.636 11.952C197.972 12.768 198.26 13.632 198.548 14.496ZM197.156 30.336C197.876 28.224 197.828 26.016 197.78 23.76C197.78 20.784 197.636 17.712 197.06 14.832V14.736C196.724 15.888 196.532 16.944 196.388 17.952C195.956 21.504 196.004 25.008 196.58 28.272C196.724 29.136 196.628 30 196.244 30.672L195.524 32.16C195.572 32.208 195.668 32.208 195.764 32.208C195.86 32.208 196.004 32.208 196.1 32.16C196.148 32.112 196.34 32.064 196.58 31.728L197.156 30.336ZM192.02 30.624C192.068 30.624 192.068 30.624 192.068 30.672C192.068 30.624 192.02 30.624 192.02 30.624Z" fill="#FF5200"/>
<path d="M187.05 17.4239C187.386 19.4879 186.618 20.7839 185.85 21.5999C185.658 21.9359 185.37 22.2719 185.082 22.6079C184.842 23.1359 184.506 23.6159 184.17 23.9519C182.97 25.8719 180.81 26.8799 177.69 26.8799C177.21 26.8799 176.778 26.8799 176.346 26.8319C176.586 28.2239 176.826 29.6159 176.922 31.0079C177.114 32.6399 177.018 33.9359 176.634 35.0399C176.298 36.1439 175.674 37.1519 174.762 37.9199C174.426 38.8319 173.802 39.6479 173.034 40.3199C172.698 40.6079 171.786 41.2799 170.682 41.2799C169.962 41.2799 169.29 40.9439 168.81 40.3679C168.714 40.2719 168.618 40.1759 168.57 40.0319C168.234 39.9359 167.994 39.6959 167.802 39.4079C167.322 38.6399 167.226 37.8239 167.13 37.1039C167.082 36.9599 167.082 36.8159 167.082 36.7199L165.882 29.2799C165.594 27.6479 165.354 25.9199 165.114 24.1439C163.818 23.6639 162.57 23.0879 161.37 22.4159C160.698 22.0799 160.362 21.3599 160.554 20.6399C160.602 20.4959 160.65 20.3519 160.746 20.2079C160.698 20.1119 160.65 20.0159 160.65 19.8719C160.314 18.8639 160.458 17.7599 160.938 16.8959C161.226 16.3679 161.706 15.9359 162.234 15.6479C162.282 15.2639 162.426 14.8799 162.618 14.5439C162.618 14.5439 162.666 14.4959 162.666 14.4479C162.33 13.2959 161.946 12.1439 161.562 11.0879C161.322 10.3679 161.37 9.55192 161.706 8.87992C161.946 8.44792 162.234 8.06391 162.666 7.77592C162.762 7.39191 163.002 7.05592 163.29 6.76791C163.29 6.71991 163.338 6.62392 163.386 6.52791C163.626 6.09591 163.914 5.71192 164.346 5.42391C164.49 4.89592 164.826 4.46391 165.306 4.12792C166.122 3.55192 167.082 3.26392 168.186 3.26392C169.338 3.26392 170.634 3.59991 172.026 4.31991C173.706 5.18391 175.29 6.19192 176.73 7.15191C179.658 9.07192 182.634 11.3759 185.514 13.9679C186.042 14.4959 186.426 15.1199 186.474 15.7919C186.762 16.3679 186.954 16.8959 187.05 17.4239ZM184.65 20.6399C185.37 19.9679 185.754 19.0079 185.562 17.6639C185.466 17.1839 185.274 16.7039 184.986 16.2239C185.034 15.8399 184.89 15.4559 184.506 15.1199C181.77 12.6719 178.938 10.4159 175.914 8.39992C174.426 7.43992 172.938 6.47991 171.354 5.66391C169.818 4.89592 167.754 4.27191 166.17 5.37591C165.882 5.61591 165.642 5.95192 165.69 6.38392C164.97 6.62392 164.394 7.39191 164.682 8.20792C165.402 10.2719 166.026 12.3839 166.602 14.4959L166.314 14.3519C165.45 14.0159 164.346 14.5919 163.914 15.3119C163.386 16.2239 163.626 17.7119 164.682 18.1919C165.738 18.6719 166.794 19.1519 167.898 19.5839C167.946 19.8719 168.042 20.1119 168.09 20.3999C166.65 19.8719 165.21 19.2959 163.818 18.6239C163.722 18.5759 163.674 18.6719 163.722 18.7199C165.162 19.4879 166.65 20.1599 168.138 20.7359C168.426 22.7039 168.714 24.7199 169.05 26.6879C169.29 28.3679 169.578 29.9999 169.818 31.6319L170.25 34.1279C170.346 34.7999 170.346 35.6639 170.73 36.2399C170.778 36.2879 170.778 36.2879 170.778 36.2399C170.97 35.6639 170.778 34.9439 170.73 34.3199C170.586 33.5039 170.49 32.6879 170.394 31.8239C170.298 31.3439 170.25 30.8639 170.202 30.3359C170.346 31.1999 170.538 32.0159 170.778 32.7839C170.826 33.4079 170.922 34.0319 171.018 34.6079C171.114 35.4719 171.114 36.3839 171.642 37.0559C172.218 37.7759 173.226 37.2479 173.754 36.8159C174.426 36.1919 174.954 35.4239 175.194 34.6079C175.53 33.5039 175.53 32.3039 175.434 31.1519C175.194 28.7999 174.714 26.3999 174.282 24.0479C174.186 23.5199 174.042 22.9439 173.946 22.3679C174.378 22.4639 174.81 22.5119 175.242 22.6079C178.218 23.0879 182.922 23.7599 184.65 20.6399ZM178.89 15.5039C179.994 16.1759 181.242 16.8479 181.914 17.8559C182.01 17.9519 182.058 18.0479 182.106 18.1439L181.722 18.2399C181.434 18.2879 181.098 18.3359 180.762 18.3359C179.13 18.4799 177.498 18.2879 175.914 17.9519C174.858 17.7119 173.85 17.4239 172.842 17.0879C172.458 15.2159 171.978 13.3919 171.498 11.5679C172.602 12.0479 173.658 12.5759 174.714 13.1039C176.106 13.8719 177.498 14.6879 178.89 15.5039ZM176.394 21.9359C177.594 22.1279 179.274 22.2239 180.906 22.0319C180.906 22.0799 181.914 21.9839 181.914 22.0319L180.09 22.3199C178.218 22.5119 176.25 22.2239 174.378 21.9359C174.186 21.9359 174.042 21.8879 173.85 21.8399C173.802 21.7439 173.802 21.5999 173.754 21.4559C174.666 21.6479 175.53 21.8399 176.394 21.9359ZM173.994 30.3839L173.898 29.4239C173.946 29.4239 173.85 28.8479 173.898 28.7999L174.186 30.2879C174.522 31.8719 174.714 33.5039 174.042 34.9919C173.898 35.1359 173.754 35.2319 173.562 35.3279L173.466 35.1839C174.234 33.7439 174.138 31.9679 173.994 30.3839Z" fill="#FF5200"/>
<path d="M157.015 20.4959C157.447 21.2159 157.543 22.0799 157.351 22.8959C157.063 23.9039 156.343 24.6719 155.335 24.9599C154.567 26.9759 153.511 27.6479 152.167 27.6479C151.975 27.6479 151.735 27.5999 151.543 27.5999C151.255 27.5519 150.967 27.4559 150.727 27.4079C150.583 27.3599 150.391 27.2639 150.295 27.2639L148.711 27.1199C147.703 27.0719 146.791 27.0239 145.927 27.0239H145.735C144.583 27.0239 143.623 27.0719 142.759 27.1199C142.519 27.1199 142.279 27.1679 141.991 27.1679C141.607 27.2159 141.175 27.2639 140.695 27.2639C140.215 27.2639 139.735 27.2159 139.351 27.0719C138.487 26.8319 137.911 26.1599 137.767 25.3439C137.623 24.4799 138.295 22.6079 139.015 22.0799C139.159 21.3119 139.639 20.5919 140.359 20.2559L140.983 19.9679C141.223 19.4399 141.655 18.9599 142.135 18.7199C143.383 18.0479 144.679 17.9519 145.879 17.8559C146.935 17.7599 147.847 17.7119 148.711 17.7119H148.951C149.383 17.6639 149.815 17.6639 150.247 17.6639C151.639 17.6639 153.223 17.7599 154.711 18.3359C155.143 18.5279 155.479 18.8639 155.671 19.2479C156.247 19.5359 156.727 19.9679 157.015 20.4959ZM156.295 22.6079C156.631 21.4079 155.863 20.3519 154.759 20.0639C154.807 19.7759 154.615 19.4879 154.279 19.3439C152.599 18.6719 150.583 18.7199 148.759 18.7679L145.975 18.9119C144.823 19.0079 143.671 19.1039 142.663 19.6319C142.087 19.9199 141.799 20.5919 141.847 21.1679L141.463 21.4079C140.647 21.9839 140.695 23.2319 141.703 23.5199C142.711 23.8079 143.815 23.5679 144.775 23.5199C145.783 23.4719 146.791 23.4719 147.799 23.4719C148.807 23.4239 149.815 23.4719 150.823 23.5679C151.399 23.5679 151.927 23.6159 152.455 23.6639C152.839 23.7119 153.367 23.9519 153.799 23.9999C154.903 24.1919 156.007 23.7599 156.295 22.6079Z" fill="#FF5200"/>
<path d="M139.708 32.4959C139.9 33.3119 139.948 34.0319 139.852 34.6559C139.708 35.7119 139.084 36.5279 138.22 36.9119C138.172 36.9599 138.172 36.9599 138.172 37.0079C138.028 38.2079 137.308 39.0719 136.204 39.3599C136.108 39.4079 136.012 39.4079 135.916 39.4559C135.244 39.8879 134.476 40.1759 133.66 40.1759C132.22 40.1759 130.828 39.3119 130.156 38.0159C129.868 37.4879 129.676 36.9119 129.628 36.2879C128.236 33.5039 126.124 30.6239 123.1 27.2159C122.812 26.9279 122.572 26.6399 122.332 26.3519L122.62 28.7999C122.812 29.8559 123.004 30.9119 123.196 31.8719C123.244 32.0159 123.292 32.2079 123.388 32.3999C123.532 32.7359 123.676 33.0719 123.772 33.5519L124.06 34.9919C124.3 35.9999 123.964 37.0079 123.244 37.5839C123.004 37.7759 122.716 37.9679 122.428 38.1599C122.38 38.8799 122.092 39.5039 121.564 39.9359C120.508 40.7999 119.26 41.2799 117.964 41.2799C117.484 41.2799 116.956 41.2319 116.476 41.0879H116.38C114.7 41.0879 113.212 40.0799 112.54 38.5439C112.012 37.2959 111.868 35.9999 111.772 34.8479C111.772 34.5119 111.724 34.2239 111.676 33.8879C111.292 30.4319 110.908 27.2639 110.716 24.0479C110.476 20.9279 110.284 17.7119 110.188 14.1599L110.14 13.6319C110.14 12.9599 110.092 12.2399 110.092 11.5199V11.4719C110.092 10.8959 110.092 10.1279 110.476 9.3599C110.716 8.8319 111.1 8.3999 111.532 8.1119L111.628 8.0159C111.724 7.8239 111.82 7.6319 111.916 7.4879C111.964 7.3439 112.06 7.1519 112.156 7.0079C112.396 6.4799 112.78 6.0479 113.212 5.7599L113.308 5.66389C113.932 4.4639 115.18 3.7439 116.524 3.7439C117.868 3.7439 119.164 4.3679 119.932 5.42389C120.508 6.2399 120.7 7.1519 120.508 8.0639L120.796 8.30389C121.084 8.5919 121.228 8.97589 121.228 9.4079V9.6959C121.228 10.7039 121.276 11.7119 121.276 12.6719C121.9 12.4319 122.428 12.1439 122.956 11.9039C124.684 11.0879 126.7 10.1279 128.668 9.0719C129.724 8.4959 130.684 7.9679 131.548 7.4399C131.644 7.3919 131.788 7.3439 131.884 7.2479C132.604 6.8159 133.612 6.1919 134.716 6.1919C135.004 6.1919 135.244 6.2399 135.484 6.2879C136.3 6.52789 136.924 7.0559 137.356 7.7759C137.836 7.9199 138.268 8.2079 138.556 8.6879C138.892 9.3119 138.94 10.0319 138.604 10.7039C138.076 11.6639 137.5 12.5279 136.78 13.2959C135.628 15.3599 133.996 16.8959 132.124 18.2399C134.476 20.7359 136.348 23.6159 137.74 26.7359C138.604 28.7039 139.276 30.6239 139.708 32.4959ZM137.452 35.5679C138.604 35.2319 138.46 33.7919 138.268 32.8319C137.788 30.9599 137.164 29.1359 136.348 27.3599C134.764 23.7119 132.412 20.4479 129.484 17.7119C129.196 17.4239 128.716 17.7599 128.764 18.0959L128.092 17.5199C128.524 17.2799 128.908 17.0879 129.34 16.8479C132.412 15.1199 135.58 13.1999 137.26 10.0319C137.548 9.4559 136.876 8.9279 136.396 9.3119L136.252 9.4559C136.252 8.6879 135.868 7.9679 135.1 7.7759C134.14 7.4879 133.084 8.3519 132.316 8.7839C128.572 10.9439 123.868 13.2479 119.884 14.9759C119.788 13.1999 119.74 11.4719 119.692 9.6959V9.3599C119.692 9.3599 119.644 9.3119 119.644 9.3599C119.308 11.3759 119.068 13.3919 118.876 15.4559C118.732 15.5039 118.636 15.5999 118.492 15.7439L118.636 11.4239C118.684 10.3199 118.636 9.1679 118.924 8.2079C119.836 5.6159 115.9 4.0319 114.604 6.3839C114.508 6.5759 114.412 6.7199 114.364 6.9119C113.356 7.1519 113.26 8.30389 113.308 9.1679C113.308 10.0319 113.356 10.8959 113.356 11.7599C113.5 15.0719 113.644 18.3359 113.884 21.5999C114.124 24.8639 114.508 28.1279 114.892 31.3919C115.036 32.8319 115.036 34.2719 115.612 35.6159C116.092 36.6719 117.244 37.3439 118.348 37.1999C119.692 37.6799 121.132 37.3919 122.284 36.4319C122.62 36.1439 122.668 35.6639 122.572 35.2799C122.38 34.1759 121.948 33.1199 121.708 32.2079C121.516 31.1519 121.276 30.0959 121.132 29.0399C120.796 26.3519 120.508 23.6639 120.268 21.0239L121.42 20.5439C121.708 20.4479 121.948 20.3519 122.188 20.2559C123.58 21.2639 124.732 22.5599 125.884 23.8559C128.524 26.7839 131.068 29.9999 132.844 33.5999C132.844 34.0799 132.94 34.5119 133.18 34.9439C133.564 35.7599 134.428 36.2879 135.34 36.2879C136.828 36.2879 137.74 35.0399 137.596 33.7439C137.356 30.9599 132.604 22.5119 130.78 20.2559C133.564 23.3279 135.676 26.7359 137.116 30.6239C137.452 31.5839 138.94 34.7519 137.404 35.3759C137.308 35.4239 137.356 35.6159 137.452 35.5679Z" fill="#FF5200"/>
<path d="M110.258 8.544C110.402 10.608 110.306 12.672 110.258 14.688V14.976C110.258 15.84 110.21 16.752 110.21 17.664C110.114 20.016 110.066 22.416 109.97 24.816C109.826 29.568 109.634 33.408 109.442 36.912V37.392L109.154 37.728C108.77 38.256 108.338 38.64 107.81 38.928C107.762 39.024 107.762 39.168 107.762 39.264V39.744L107.474 40.08C106.946 40.848 106.178 41.328 105.362 41.568C104.93 41.712 104.546 41.76 104.162 41.76C103.01 41.76 102.002 41.28 101.282 40.464C100.274 40.128 99.5543 39.216 99.2663 37.968C99.0743 37.056 99.1703 36.096 99.2183 35.28C99.2183 34.992 99.2663 34.752 99.2663 34.512C99.2663 33.312 99.3143 32.16 99.3623 30.96C99.4103 30.24 99.4103 29.52 99.4583 28.752V27.216C99.4583 27.216 99.4583 26.064 99.4583 25.248L98.9303 26.112C98.9303 26.112 95.1383 32.928 94.9943 33.216L94.7063 34.56V34.656C94.4663 35.904 94.0823 37.68 92.5943 38.64C92.2583 39.696 91.6343 40.752 90.3383 41.328C90.0983 41.424 89.6663 41.568 89.1863 41.568C88.9463 41.568 88.6583 41.52 88.4183 41.424C87.2183 41.328 86.1623 40.656 85.3943 39.552C85.2023 39.408 85.0103 39.168 84.9623 38.928H84.8663C84.7703 38.448 84.7223 37.968 84.6743 37.44V37.152L84.8183 36.24V36.048C84.8183 28.08 85.7303 19.68 87.6023 10.512C87.7463 9.696 88.3703 9.12 89.1383 8.928L89.2823 8.16C89.4743 7.248 90.2423 6.576 91.1543 6.528L91.2023 6.384L91.5863 6.048L92.0183 5.76C92.6423 5.328 93.4583 5.088 94.2263 5.088H94.6583C94.8983 4.848 95.2343 4.656 95.5703 4.56C95.5703 4.32 95.6183 4.08 95.6663 3.84C95.8583 3.024 96.5783 2.352 97.3463 2.208C97.4903 2.16 97.7303 2.112 97.9703 2.112C98.4503 2.112 98.8823 2.256 99.3143 2.592L99.6023 2.832C100.034 2.496 100.466 1.968 100.898 1.44L101.186 1.104C101.81 0.384001 102.626 0 103.538 0C104.738 0 105.938 0.767999 106.562 1.872C107.09 2.832 107.09 3.984 106.562 4.944C107.378 5.04 108.146 5.472 108.674 6.192C108.866 6.48 109.058 6.768 109.154 7.104C109.346 7.2 109.538 7.296 109.682 7.44L110.258 7.872V8.544ZM97.1543 4.224C96.6743 6 98.4023 7.392 100.034 7.584C101.042 7.728 102.002 7.392 102.866 6.912C103.874 6.24 104.546 5.28 105.17 4.272C106.274 2.544 103.682 0.527999 102.338 2.112C101.714 2.832 100.994 3.744 100.178 4.32C99.8903 4.512 99.6503 4.512 99.2183 4.512C99.1223 4.512 99.0263 4.464 98.9303 4.416L98.7383 4.272C98.6903 4.224 98.6423 4.176 98.6423 4.176C98.5943 3.984 98.4983 3.888 98.3543 3.792C98.1623 3.6 97.9223 3.6 97.6823 3.696C97.3943 3.744 97.2023 3.984 97.1543 4.224ZM108.77 14.928C108.818 12.816 108.866 10.704 108.77 8.64C108.53 8.448 108.29 8.304 108.002 8.208H107.858C107.81 7.776 107.714 7.44 107.474 7.104C105.986 5.136 103.202 7.968 102.29 9.168C100.706 11.328 99.3143 13.632 98.0663 15.984C97.4423 17.136 96.7703 18.24 96.1943 19.392C95.7623 20.112 95.2343 20.784 94.9943 21.6C94.7543 22.224 94.1783 23.136 94.0823 23.712C94.1783 22.896 94.2743 22.08 94.4183 21.264C94.7063 19.632 94.9943 17.952 95.3303 16.32C95.6183 14.592 95.9543 12.864 96.3863 11.136C96.6263 10.224 97.0583 9.312 96.5303 8.352C96.3383 8.016 96.0503 7.68 95.7143 7.488C95.7143 7.44 95.7143 7.44 95.6663 7.392C95.1383 6.336 93.6983 6.432 92.8343 7.008C92.7383 7.056 92.6423 7.152 92.5463 7.248L91.8263 9.984C91.0583 12.768 90.5783 15.696 90.0983 18.576C89.1863 24.432 88.6583 30.384 88.2743 36.288C88.7543 37.008 89.5703 37.584 90.4343 37.584C90.7223 37.776 91.1543 37.728 91.4423 37.584C92.7383 37.008 92.9783 35.52 93.2183 34.272C93.3143 33.696 93.4583 33.168 93.5543 32.64L94.5623 30.912C94.5623 30.912 100.466 20.304 101.906 17.712L102.674 16.656C102.578 19.392 102.482 31.056 102.434 32.208C102.434 33.216 102.242 34.32 102.434 35.28C102.578 35.952 102.914 36.576 103.634 36.72C103.682 36.768 103.778 36.768 103.826 36.768C104.45 37.728 105.506 38.112 106.61 37.776C107.186 37.632 107.618 37.296 107.954 36.864C108.146 32.832 108.338 28.8 108.482 24.768L108.77 14.928ZM87.4103 35.904C87.4583 36 87.5063 36.144 87.5063 36.048C88.1303 26.88 89.1383 17.76 91.1543 8.736C91.3463 8.064 90.2423 7.776 90.0983 8.448C88.3703 16.752 87.3143 25.296 87.3623 33.792L87.2183 34.992C87.2183 35.424 87.3143 35.76 87.4103 35.904ZM98.7863 11.472C98.5943 11.472 98.3543 11.472 98.1623 11.424C98.0663 11.424 97.9703 11.424 97.8743 11.376V11.52C97.6823 12.24 97.5383 12.912 97.3943 13.584C97.8743 12.864 98.3063 12.144 98.7863 11.472ZM103.634 29.616V29.76C103.682 30.816 103.682 31.92 103.73 33.024V33.216C103.538 34.176 103.298 35.136 103.538 36.096C103.25 35.616 103.106 34.896 103.106 34.464C103.154 33.504 103.25 32.592 103.298 31.632L103.442 29.568C103.49 29.568 103.586 29.616 103.634 29.616Z" fill="#FF5200"/>
<path d="M84.857 28.128C84.953 29.232 84.521 30.288 83.705 31.104C83.561 31.392 83.321 31.68 83.033 31.824C82.841 32.448 82.505 32.976 82.025 33.456C81.737 33.984 81.209 34.368 80.585 34.512C76.937 35.232 73.481 36.144 70.265 37.248C68.777 37.776 67.193 38.352 65.609 38.976C65.513 39.024 65.417 39.072 65.321 39.072L65.129 39.168C64.697 39.36 64.265 39.552 63.737 39.744C63.113 40.176 62.393 40.512 61.433 40.8C61.049 40.944 60.569 41.136 59.993 41.232L59.849 41.28H59.705C59.561 41.28 59.465 41.28 59.321 41.232C59.081 41.28 58.841 41.28 58.601 41.28C57.305 41.28 56.297 40.656 55.769 39.6L55.625 39.216C55.097 38.832 54.665 38.304 54.377 37.728C53.945 36.864 53.801 35.952 53.945 35.088C53.801 33.984 53.705 32.88 53.609 31.776L53.465 30.24L52.409 19.44C51.785 18.576 51.449 17.472 51.545 16.368C51.641 15.456 51.977 14.688 52.457 13.968C52.313 13.68 52.217 13.392 52.265 13.056C52.313 12.48 52.649 11.952 53.129 11.712C53.417 11.52 53.705 11.376 53.993 11.232C53.945 11.088 53.945 10.896 53.945 10.704C53.993 10.128 54.329 9.6 54.809 9.36C58.217 7.536 61.865 6.48 65.321 5.568C65.705 5.424 66.089 5.328 66.425 5.28H66.473L66.953 5.184C68.825 4.8 70.697 4.416 72.665 4.272C73.145 4.224 73.625 4.224 74.105 4.224L74.201 4.992L75.785 4.56L76.409 4.368L76.745 4.464C77.129 4.512 77.513 4.608 77.849 4.704C78.185 4.8 78.473 4.896 78.761 5.04L79.145 5.232C79.433 5.472 79.721 5.712 79.961 5.952L80.249 6.24L80.393 6.576C80.825 7.872 80.969 9.12 80.729 10.272L80.585 11.184L79.721 11.472L79.145 11.616C79.145 11.904 79.145 12.192 79.097 12.48C79.625 12.768 80.201 13.2 80.633 13.968C80.729 14.112 80.777 14.256 80.873 14.448C80.873 14.496 80.921 14.592 80.969 14.64C81.545 15.12 81.929 15.792 82.121 16.608C82.409 18.048 81.689 19.632 80.393 20.448C80.393 20.496 80.393 20.496 80.345 20.544C82.169 20.88 84.473 22.464 84.857 28.128ZM55.529 10.656C55.433 10.752 55.433 10.896 55.529 10.944C56.585 10.464 57.641 10.032 58.745 9.696C61.913 8.592 65.177 7.872 68.441 7.152C70.313 6.72 72.233 6.24 74.105 5.76C73.673 5.76 73.241 5.76 72.809 5.808C70.745 5.952 68.777 6.336 66.809 6.72L65.705 7.008C62.249 7.92 58.697 8.976 55.529 10.656ZM82.457 30.192C83.033 29.76 83.417 29.088 83.369 28.224C83.177 25.488 82.265 21.264 78.569 22.032C78.041 22.176 77.561 22.416 77.033 22.56L75.161 23.136C74.009 23.52 72.857 23.952 71.705 24.384C70.985 24.624 70.265 24.912 69.545 25.2L65.465 26.784C64.409 27.216 63.353 27.648 62.297 28.128L62.153 28.224C62.153 28.128 62.153 28.08 62.153 28.032L61.865 24.912C63.209 24.24 64.505 23.568 65.897 22.992C68.153 22.032 70.409 21.312 72.713 20.688C73.865 20.4 75.065 20.16 76.217 19.968C77.321 19.728 78.377 19.776 79.385 19.296C80.249 18.864 80.825 17.808 80.633 16.896C80.537 16.416 80.249 15.936 79.817 15.696C79.769 15.696 79.769 15.696 79.721 15.648C79.673 15.456 79.577 15.264 79.481 15.072C79.433 14.976 79.385 14.832 79.289 14.688C78.617 13.536 77.465 13.488 76.265 13.536C75.689 13.584 75.161 13.632 74.585 13.728L73.961 13.872C72.425 14.304 70.841 14.736 69.305 15.12C66.569 16.128 63.929 17.28 61.241 18.432C61.241 18.192 60.953 16.464 60.905 15.984L61.001 15.888C62.489 15.264 64.025 14.688 65.561 14.16C66.089 13.92 70.841 12.48 73.289 11.808C73.385 11.808 73.481 11.76 73.577 11.712C74.681 11.424 75.785 11.088 76.841 10.752L79.241 10.032C79.433 9.072 79.289 8.064 78.953 7.056L78.185 6.432C77.945 6.336 77.705 6.24 77.417 6.144C77.129 6.048 76.793 6 76.457 5.952C73.961 6.624 71.465 7.296 68.921 7.872C65.657 8.544 62.393 9.264 59.225 10.368C58.217 10.704 57.161 11.088 56.153 11.52C56.105 11.664 56.009 11.808 55.961 11.904C55.289 12.48 54.857 13.2 54.761 14.16C54.665 14.976 54.953 15.888 55.529 16.512L56.105 21.984L56.681 27.744C56.825 29.424 56.921 31.152 57.209 32.784C56.777 34.032 57.593 35.472 58.793 35.952C58.745 36.192 58.745 36.384 58.841 36.624C59.225 37.44 60.089 37.488 60.857 37.344C61.049 37.344 61.337 37.296 61.337 37.296C61.289 37.344 64.025 36.528 64.601 36.144L64.649 36.096C65.177 35.856 65.705 35.664 66.233 35.424L66.569 35.28C66.569 35.28 66.569 35.28 66.617 35.28C68.201 34.608 69.833 34.032 71.465 33.456C74.873 32.256 78.425 31.344 81.977 30.672C82.265 30.624 82.409 30.432 82.457 30.192ZM70.889 20.16C70.601 20.256 70.361 20.352 70.073 20.496C67.673 21.456 65.177 22.368 62.825 23.568C63.209 23.232 63.497 22.752 63.593 22.224C64.505 21.984 65.417 21.696 66.377 21.408C67.865 20.928 69.353 20.496 70.841 20.016L70.889 20.16ZM60.233 36.624C61.193 36.384 62.105 36 63.017 35.664C63.929 35.376 64.793 35.04 65.657 34.704V34.8C64.937 35.184 64.217 35.568 63.449 35.952C63.113 36.144 62.729 36.336 62.345 36.528C62.297 36.576 62.249 36.576 62.201 36.576C62.057 36.624 60.953 36.72 60.233 36.624Z" fill="#FF5200"/>
<path d="M52.7062 17.4239C53.0422 19.4879 52.2742 20.7839 51.5062 21.5999C51.3142 21.9359 51.0262 22.2719 50.7382 22.6079C50.4982 23.1359 50.1622 23.6159 49.8262 23.9519C48.6262 25.8719 46.4662 26.8799 43.3462 26.8799C42.8662 26.8799 42.4342 26.8799 42.0022 26.8319C42.2422 28.2239 42.4822 29.6159 42.5782 31.0079C42.7702 32.6399 42.6742 33.9359 42.2902 35.0399C41.9542 36.1439 41.3302 37.1519 40.4182 37.9199C40.0822 38.8319 39.4582 39.6479 38.6902 40.3199C38.3542 40.6079 37.4422 41.2799 36.3382 41.2799C35.6182 41.2799 34.9462 40.9439 34.4662 40.3679C34.3702 40.2719 34.2742 40.1759 34.2262 40.0319C33.8902 39.9359 33.6502 39.6959 33.4582 39.4079C32.9782 38.6399 32.8822 37.8239 32.7862 37.1039C32.7382 36.9599 32.7382 36.8159 32.7382 36.7199L31.5382 29.2799C31.2502 27.6479 31.0102 25.9199 30.7702 24.1439C29.4742 23.6639 28.2262 23.0879 27.0262 22.4159C26.3542 22.0799 26.0182 21.3599 26.2102 20.6399C26.2582 20.4959 26.3062 20.3519 26.4022 20.2079C26.3542 20.1119 26.3062 20.0159 26.3062 19.8719C25.9702 18.8639 26.1142 17.7599 26.5942 16.8959C26.8822 16.3679 27.3622 15.9359 27.8902 15.6479C27.9382 15.2639 28.0822 14.8799 28.2742 14.5439C28.2742 14.5439 28.3222 14.4959 28.3222 14.4479C27.9862 13.2959 27.6022 12.1439 27.2182 11.0879C26.9782 10.3679 27.0262 9.55192 27.3622 8.87992C27.6022 8.44792 27.8902 8.06391 28.3222 7.77592C28.4182 7.39191 28.6582 7.05592 28.9462 6.76791C28.9462 6.71991 28.9942 6.62392 29.0422 6.52791C29.2822 6.09591 29.5702 5.71192 30.0022 5.42391C30.1462 4.89592 30.4822 4.46391 30.9622 4.12792C31.7782 3.55192 32.7382 3.26392 33.8422 3.26392C34.9942 3.26392 36.2902 3.59991 37.6822 4.31991C39.3622 5.18391 40.9462 6.19192 42.3862 7.15191C45.3142 9.07192 48.2902 11.3759 51.1702 13.9679C51.6982 14.4959 52.0822 15.1199 52.1302 15.7919C52.4182 16.3679 52.6102 16.8959 52.7062 17.4239ZM50.3062 20.6399C51.0262 19.9679 51.4102 19.0079 51.2182 17.6639C51.1222 17.1839 50.9302 16.7039 50.6422 16.2239C50.6902 15.8399 50.5462 15.4559 50.1622 15.1199C47.4262 12.6719 44.5942 10.4159 41.5702 8.39992C40.0822 7.43992 38.5942 6.47991 37.0102 5.66391C35.4742 4.89592 33.4102 4.27191 31.8262 5.37591C31.5382 5.61591 31.2982 5.95192 31.3462 6.38392C30.6262 6.62392 30.0502 7.39191 30.3382 8.20792C31.0582 10.2719 31.6822 12.3839 32.2582 14.4959L31.9702 14.3519C31.1062 14.0159 30.0022 14.5919 29.5702 15.3119C29.0422 16.2239 29.2822 17.7119 30.3382 18.1919C31.3942 18.6719 32.4502 19.1519 33.5542 19.5839C33.6022 19.8719 33.6982 20.1119 33.7462 20.3999C32.3062 19.8719 30.8662 19.2959 29.4742 18.6239C29.3782 18.5759 29.3302 18.6719 29.3782 18.7199C30.8182 19.4879 32.3062 20.1599 33.7942 20.7359C34.0822 22.7039 34.3702 24.7199 34.7062 26.6879C34.9462 28.3679 35.2342 29.9999 35.4742 31.6319L35.9062 34.1279C36.0022 34.7999 36.0022 35.6639 36.3862 36.2399C36.4342 36.2879 36.4342 36.2879 36.4342 36.2399C36.6262 35.6639 36.4342 34.9439 36.3862 34.3199C36.2422 33.5039 36.1462 32.6879 36.0502 31.8239C35.9542 31.3439 35.9062 30.8639 35.8582 30.3359C36.0022 31.1999 36.1942 32.0159 36.4342 32.7839C36.4822 33.4079 36.5782 34.0319 36.6742 34.6079C36.7702 35.4719 36.7702 36.3839 37.2982 37.0559C37.8742 37.7759 38.8822 37.2479 39.4102 36.8159C40.0822 36.1919 40.6102 35.4239 40.8502 34.6079C41.1862 33.5039 41.1862 32.3039 41.0902 31.1519C40.8502 28.7999 40.3702 26.3999 39.9382 24.0479C39.8422 23.5199 39.6982 22.9439 39.6022 22.3679C40.0342 22.4639 40.4662 22.5119 40.8982 22.6079C43.8742 23.0879 48.5782 23.7599 50.3062 20.6399ZM44.5462 15.5039C45.6502 16.1759 46.8982 16.8479 47.5702 17.8559C47.6662 17.9519 47.7142 18.0479 47.7622 18.1439L47.3782 18.2399C47.0902 18.2879 46.7542 18.3359 46.4182 18.3359C44.7862 18.4799 43.1542 18.2879 41.5702 17.9519C40.5142 17.7119 39.5062 17.4239 38.4982 17.0879C38.1142 15.2159 37.6342 13.3919 37.1542 11.5679C38.2582 12.0479 39.3142 12.5759 40.3702 13.1039C41.7622 13.8719 43.1542 14.6879 44.5462 15.5039ZM42.0502 21.9359C43.2502 22.1279 44.9302 22.2239 46.5622 22.0319C46.5622 22.0799 47.5702 21.9839 47.5702 22.0319L45.7462 22.3199C43.8742 22.5119 41.9062 22.2239 40.0342 21.9359C39.8422 21.9359 39.6982 21.8879 39.5062 21.8399C39.4582 21.7439 39.4582 21.5999 39.4102 21.4559C40.3222 21.6479 41.1862 21.8399 42.0502 21.9359ZM39.6502 30.3839L39.5542 29.4239C39.6022 29.4239 39.5062 28.8479 39.5542 28.7999L39.8422 30.2879C40.1782 31.8719 40.3702 33.5039 39.6982 34.9919C39.5542 35.1359 39.4102 35.2319 39.2182 35.3279L39.1222 35.1839C39.8902 33.7439 39.7942 31.9679 39.6502 30.3839Z" fill="#FF5200"/>
<path d="M30.7336 29.2799C31.7415 31.5359 32.0296 33.8879 30.7336 36.0479C30.3496 36.6239 29.9655 37.0559 29.4855 37.3919C29.3896 37.7759 29.2455 38.1119 29.0535 38.3999C27.5655 40.7999 24.9255 40.9919 23.5335 41.0879C19.4055 41.3759 15.2776 41.1839 11.1975 41.0879H9.75755C8.26955 41.2319 6.87755 41.3759 5.62955 41.5199C5.43755 41.5679 5.24555 41.5679 5.05355 41.5679C3.42155 41.5679 2.12555 40.7999 1.54955 39.4559C1.11755 38.4479 1.26155 37.3439 1.98155 36.4319C2.02955 36.2399 2.17355 35.9999 2.26955 35.8079C2.17355 35.4239 2.17355 35.0399 2.17355 34.6559C2.26955 31.6319 2.02955 28.5599 1.74155 25.5839C0.877549 24.5759 0.301549 23.4719 0.109549 22.3199C-0.178451 20.6879 0.109549 19.2959 0.877549 18.3359C0.685549 16.9919 0.493549 15.5519 0.349549 13.9679L0.157549 12.2879H0.637549L0.781549 11.9999C0.589549 11.6159 0.589549 11.1839 0.685549 10.7999C0.925549 10.0319 1.59755 9.55191 2.36555 9.55191H2.41355C2.26955 9.21591 2.26955 8.83191 2.36555 8.44791C2.60555 7.67991 3.27755 7.19991 4.04555 7.19991H4.33355C4.66955 7.24791 4.95755 7.29591 5.24555 7.34391C5.53355 7.29591 5.86955 7.24791 6.15755 7.24791C6.87755 7.24791 7.54955 7.43991 8.17355 7.72791C9.99755 7.96791 11.5815 8.06391 13.0215 8.06391C13.5495 8.06391 14.0296 8.06391 14.5096 8.01591C16.1895 7.91991 17.7735 7.72791 19.2135 7.39191C22.2855 6.71991 26.6056 3.79191 28.8136 7.63191C28.9576 7.96791 29.1015 8.25591 29.1975 8.59191C29.6295 10.1759 29.0055 12.2399 27.4695 13.1999C27.1816 14.1599 26.6055 15.0719 25.7415 15.5999C25.6935 15.6479 25.6936 15.7439 25.6456 15.7919C25.4056 16.2239 24.9736 16.5599 24.4456 16.7039C22.6216 17.2319 20.9415 17.7119 19.2615 18.0959C19.4055 18.1439 19.5016 18.1919 19.6455 18.2879C20.0775 18.4319 20.6535 18.6719 21.1815 19.0079C22.6215 19.9199 24.0615 20.9759 25.3095 22.1759C27.0855 23.9039 29.4376 26.4959 30.7336 29.2799ZM29.4376 35.2799C30.3976 33.6959 30.0616 31.7759 29.1975 29.9519C28.3815 28.1279 27.0856 26.4479 26.1256 25.2959C25.4056 24.4799 24.6375 23.6639 23.8216 22.9439C22.9096 22.1279 21.9496 21.3599 20.8936 20.7359C19.1656 19.6319 17.1975 18.4799 15.1815 17.9039C15.0375 17.8559 14.1735 17.5679 14.1735 18.0479C13.2135 17.8079 12.2535 17.4719 11.2935 17.2319C10.8135 17.1359 10.3335 17.0879 9.90155 17.0399C9.75755 16.2239 9.66155 15.4079 9.51755 14.5919C9.61355 14.5919 9.66155 14.5919 9.75755 14.6399C11.4375 14.9759 13.2135 15.1199 14.9895 15.0239C18.6375 14.8799 22.1895 13.9199 25.7415 12.9119C26.0295 12.8159 26.0776 12.5759 26.0295 12.3839C26.0776 12.2879 26.1735 12.2399 26.2215 12.1439C26.8455 11.9039 27.5655 10.8479 27.7096 10.2239C27.9496 9.40791 27.7095 8.54391 27.1335 7.96791C25.7895 6.43191 23.7736 7.34391 22.2376 7.96791C19.2616 9.21591 15.9975 9.59991 12.8295 9.55191C11.7735 9.50391 8.22155 9.55191 7.69355 9.21591C7.06955 8.78391 6.25355 8.63991 5.48555 8.83191C5.43755 8.87991 5.38955 8.87991 5.34155 8.87991C4.95755 8.83191 4.52555 8.78391 4.09355 8.68791C3.85355 8.63991 3.70955 8.97591 3.94955 9.11991C4.09355 9.26391 4.23755 9.35991 4.38155 9.45591C3.85355 9.93591 3.56555 10.6559 3.56555 11.4239H3.51755C3.70955 13.2959 3.94955 14.9279 4.18955 16.5599C4.04555 16.6559 3.94955 16.7519 3.85355 16.8479C3.13355 17.5679 3.13355 18.7679 3.27755 19.6799C3.46955 20.7839 4.09355 21.7919 4.90955 22.6079C5.19755 25.8239 5.48555 29.1359 5.34155 32.3999C5.34155 32.8319 5.43755 33.3119 5.67755 33.6959C5.34155 34.0319 5.10155 34.4159 5.00555 34.8479C4.52555 35.2799 4.33355 35.8559 4.62155 36.5279C5.05355 37.5359 6.15755 37.7759 7.16555 37.6799C8.55755 37.5359 9.94955 37.3439 11.3895 37.1999C11.8695 37.1999 12.3975 37.2479 12.8775 37.2479C14.9415 37.2959 17.0055 37.2959 19.0216 37.3439C21.0376 37.3439 23.0535 37.3439 25.0695 37.1999C26.7976 37.1039 28.4776 36.8159 29.4376 35.2799ZM20.7976 28.0799C22.0935 29.0399 23.3416 30.2399 23.8216 31.8719C23.8695 31.9679 23.8695 32.0639 23.8695 32.1599C23.8215 31.7279 19.4536 31.8719 19.0216 31.8719C16.5256 31.8719 14.0296 31.8719 11.5815 32.2559C11.3895 32.3039 11.1495 32.3039 10.9095 32.3519V31.4879C10.7175 28.9919 10.5735 26.4959 10.5735 23.9999C10.5735 23.7599 10.6695 23.5679 10.7655 23.4239C10.7655 23.3279 10.7655 23.2319 10.8135 23.1359C10.8135 23.0399 15.4695 24.8639 15.9015 25.0559C17.6295 25.9199 19.2615 26.9279 20.7976 28.0799ZM15.3255 30.3839H16.2375C15.4215 29.8559 14.5095 29.3759 13.5975 28.9919C13.2615 28.8479 13.0215 28.6559 12.7815 28.4159C12.5895 28.3199 12.3975 28.2239 12.2055 28.1759L12.3495 30.6239C13.3575 30.4799 14.3175 30.4319 15.3255 30.3839Z" fill="#FF5200"/>
</svg>
